<mxfile host="65bd71144e">
    <diagram id="Tt81lHiwYda-VrYmSUgZ" name="Page-1">
        <mxGraphModel dx="912" dy="1773" grid="1" gridSize="10" guides="1" tooltips="1" connect="1" arrows="1" fold="1" page="1" pageScale="1" pageWidth="827" pageHeight="1169" math="0" shadow="0">
            <root>
                <mxCell id="0"/>
                <mxCell id="1" parent="0"/>
                <mxCell id="2" value="" style="shape=image;verticalLabelPosition=bottom;labelBackgroundColor=default;verticalAlign=top;aspect=fixed;imageAspect=0;image=data:image/png,iVBORw0KGgoAAAANSUhEUgAAAokAAAK4CAYAAAAY8WcpAAAAAXNSR0IArs4c6QAAIABJREFUeAHsvXeUFFW3/+269z7ven/r/f1x182XyTDMMEyQIEFAQARBJIMkCZKjYAAUBMmgSBpgwBwQiaKSJCkDM0OeQAYJogQBBVHA5z7x7nftGquprk7VXef01On6zlq1qnu6+oRd33P2p3ed8MAD+HO1Be799kfCARtAA9AANAANQAPQgFEDroYjVL7cAkZB4DU6CGgAGoAGoAFoABpgDYCTYIEH0BmgM4AGoAFoABqABqABswaASLAAIBGP2zHcABqABqABaAAa8NEAEAkWACSiY/DpGMy/JvEeEQZoABqABtynASASLABIBCQCEqEBaAAagAagAR8NAJFgAUAiOgafjgERA/dFDHDPcc+hAWjArAEgEiwASAQkAhKhAWgAGoAGoAEfDQCRYAFAIjoGn47B/GsS7xFhgAagAWjAfRoAIsECgERAIiARGoAGoAFoABrw0QAQCRYAJKJj8OkYEDFwX8QA9xz3HBqABswaACLBAoBEQCIgERqABqABaAAa8NEAEAkWACSiY/DpGMy/JvEeEQZoABqABtynASASLABIBCQCEh2ugTt379Hde7/53Cf+nwqHGS4C1cd8Hd67D0pwz511z4FIsAAg0eGAgE7TWZ1mtO8HA9X+/fuptLTMCxK///4SlZUdobIjzj6OHT9BP9/+xVP2n27eol27dtGVqz94/hdtmyI/d7cp3H/r9x+IBAsAEgGJcNYO1sDd3/5I+/Yf0MDq9i+/eu7VoUOHqLi42PHH4cOH6Ydr1z3lZrjdtGkz/Xrnjud/cNrWnTZsBVtFUwNAJFgAkOhgQIhmZ4C8nOt8Tp85o0Hi9Rs3PGBVUFDgeEBkiD148CBd+Paip9yHi4spPz/f8x66c67ucG9wb4BIsAAgEZAIh+1wDVy+cpW2bdtGp06dop9u3iSGxn379hFH6Zx+cMTzwIEDdOPHn4ghd/v2HcSgCAABgEADztcAEAkWACQ6HBDQkTq/I5V9jxiwduzYQV999ZXnvHv3blLl4Mghl5+Pr7/+WhtHKdtmSB/tBhqwrwEgEiwASAQkIqrjcA38+NNNDbAYtlQ/eNIKT7aBA7fvwGFD2FC2BoBIsAAg0eGAILsTQPrOdzSAROffI7Qj3KNY1AAQCRYAJAISEdVxuAYAiQCQWAQQ1Mn5ugYiwQKARIcDAjpS53eksu9RMEjkcX48qUU/eMxfRT2StlIWPG6GnmW3F6QvTmNAJFgAkAhIRCTR4RoIBonDhg2jFi1aeI533323QiCR4XT48OGecrRp04ZWrFjhUxZAojgHDhiCLWVrAIgECwASHQoIF278QFvPlNJn3x6h9ZdP0PorsX+sPXWQ1l4+5shjzTeHhZZr5bbNtHLVKkvHhx99RFOnTqUZM2b4HM2aNaO0tDTPwdDo7zrZ/5s+fToZy5KZmUmjR4/2KQtft2DBAkv1tmofXGdNR06x06rVq+mzzz+n7Tt20KnT39Cvd+7ih6pD/RAQCRYAJDqgcd7+9Q4dvfY9rT5fQi+UbqSGOxZRzt6l7jkKllDajCFUZVAHR9Y5c/1MqtK3rbCypb82nColxFOlSpVwwAau10C1atWoV69etGjxYios2uu1Q4/sSBnSDx6NBSLBAoDECobEwm9PU4+9K6jRvnfoQTeBoaGu6XNGUFxyoiMhMXPVFIqvnkZJTesKgUQGxLjKya4HAwAyfiD400BqairVr1+f8vKW0s1bPyPCWMH+CYgECwASK6gRHrxygUYf+kwIeCgbdSxcQmnTB3uAyWmRxMxPZ1Big5pa+URAYvrsYRSXlOiprz8nif8BnqCBcg3w8IW1a9cRj8lFxC94xE+WfYBIsAAgMcqQ+MuduzS3eDvV3/e2uwFx71JKn/usFzQ5CRIz10yl+IyqHqCzC4laBDElyZMeQAAwCA2E1kBiYiK1a9eOLl2+AlCMsq9i8AQiwQKAxCg2vMu3fqKXSzZRjcI8dwNiYZ5XBFF3lk6BxMy10ymxQS0voLMDiemvDaM4G4DIjjI+PnbGMCYlJVFcXJyXfXUN4BwanNxoowYNGlBR0V6AYhT9FSARgKhZQFaYGul6Px648ett6lOylnKKXDQhxTDu0PhIPH3BaKqUmOADCU6AxMy107wiiLpDjhQStUkqfuqqpxvsXKVKFRo4cCBNnjyZJk6cSK1bt/axWbDvO+0znvE8ZswYmjJlCo0bN47Y8TutjCiPcyGV28PXu/IBilEERWASLIBIYhQa3JWfb9LQ4vXujh4yMBblUdq0QQHBoKIhkR8xmyOIOjREAonaI+YqkU1SSU9Pp5deeokWL15MH330EX3wwQc0f/586t+/P3EkTi+XKud69eppy/gsW7aMli9fTrye45w5c6h9+/YxFSVV5X6oWs6aNWtSQWERQDEKfguRRAAiIolRaGi/3L1Lo4o/ByDuXUrVFj1PleIDP2asSEjkSSrx1VIDwle4kKhFEG08IuYI4pIlS4h3Mdm5c6d2fPHFFzR79mx6+OGHA5bTqc5/0qRJ9N5773nVZ/Xq1VpUsWrV+2M/nVp+lMs5EUaOKH5z9hxAMQr+C5gECyCSKLmhrfrmED1UtMz1kJg2NXAEUXfAFQWJmauneGYx62Uxn8OBRG0Wc2pKxCCXkJBAM2fOJIYoHRD1c15enhZ9M5fPye8zMjK0qOGGDRt86jN37lyqU6dOxLZycr1RNnlg2bVrN/rp5i2AomT/BUSCBQCJEhvZ2WtXXQ+HPBax2pIXLUFARUAiL5QdXz10JMsqJKa/PsJSXYMBROXKlen111+nTz/91Aeq3nnnHerdu7ftPILlL/qz2rVrE8Pgxo0bfeqzcOFCatq0qVL1EW0fpBcZTC5f/jEgUaL/wuNmAKJmAUww8Z5gIsoev967R+PKNrseEoONQTQ7x2hDYubK0BFEvYxWIFEbg1i1sm3gASRGBg36vcLZHfbjcbsnTp4CKEoERWASLIBIoqQGdun2Taq7x8UzmYvyKD33ubCAKZqQqI1BzK5muXxBIZHr+vpwy2mFghgdEtetW+cTeUMk0R0AFEoj+LxcBy+9/DLdvfcbQFGSHwMiwQKAREmN64X97p7NnDZtMFUKc+JGtCCxOkcQ69cIC+qCQaIWQUyzH0HUHT+viTht2jRatWqVDyQuXbqUOnXqFFbZ9XQr6ly9enV64403iCfe6GMr9fO8efOobt26StWnouyIfH1/IPAWftdv/AhIlOTHgEiwACBRQuP6/uaP7n3MXJhH6fNHReT0owGJHEFMqFE97PL5hUQtgmh/DKI/59+nTx9t+Zvt27d7wIoha9asWUpCFS/n8/7775NeH561zRDMayZidrMv/PjTBP7n304bN20CJErwYxiTCEDULCBqDB7SuT+2ccWZg66FRG0v5kgXjx7UQardqq+cTAn1HgwbENk5+4PE8ghilYjSC+Xw9XUSFy1apMEVP2bmqBuvk8g7sIT6vtM+52ghLwrOkVCGxTfffFOb8cxbrmH3Ff/w47R76NTyPPnkk4BEQCKITpYFAHf34U6ELe7+9keafGK7VNgx7l7imNcFS0hbG7BS5A5PZiRRiyDWyooYrrwgkSOIr4kbgxjI+fJ6cH379tUW1R47diy1atUq4vIHyiOa/+eFkEeMGEHjx4+n0aNHY8cVG20lmvdNhbwufvc9QFECKMriDqSrkAVEgBHSuA+av9y7R32K17oOEqtOHkBxSfYiXLIgUYsg1sm2BVhGSJQZQfTnkDlyGEvRNl4H0l898b/If2C53XabNm8BJAISFSIvhYoKwLsPeCJs8fPdu/RY0bvugcSCJaQ9YhYQFZEBiVoEsU6ObSjRIDFKEUS3O3zUH7AYrgaW5OUBEgGJCpGXQkUVAUZI4z5o3rp7h2rmL3YNJKZxBDHZXgRRdwiiIVGLINaO/BGzXi4+MyTyQtlxAmcxG9PHa4ARNBC5BiZMeAWQCEhUiLwUKioA7z7gibDFzTt3KKdgSexD4p7FlDZ1oO0IndExioRELYJYN7JJKsYy6a/jqka+zZ6eBs6RQwBsB9sF08Co0aOxXiIgUSHyUqioIsAIadwHzUsuWf4mbcpAiktOciQk8jqIkSxzE8wJ4TNACjTgXA0MHTaM7ty9h2iiYFBUCGVQVFkWAODdBzwRtjhzI8b3ay5YTAyIMhymiEhi5voZYS+ULaMuSNO5QIF7E3v3ZsiQoYBEwYDI/lAWdyBdhSwgAoyQxn3QjHVI5L2YRY1BNDtru5BYfdUUig9jqz1z/ngfe/CAe+qOewpIvO+DRPpjhVAGRZVlAZGCQlp/pJiFRJ7FPHmAlAii7sjtQKIWQXy4ptTy6eV02pmXyGncuDH17NmTunfvTo888gglJYkdChCsztnZ2dShQwfq1asX8eLYvA1fsOvxmTvALZr3GZAISJTFSK5PF2AntnHFKiSmTx9sex3EUE4jUkjMXD2V4qtXdSWY8JqDAwYMoNmzZ2u7mOTl5WmvGRZD2VvE52lpaTRx4kRasGABvfXWWzR//nztPe8YIyJ9pAGgtKIBQKJYP6ZzgesBCQZ4AHs3Cx7HEXOQyBHEV/tHxeFHAok8izmxgTsjiOw8ebu7GTNm0Jo1azx7PK9du1b7n+w9kXmB7zFjxtCyZcuI92LeuXOntjfzkiVLtJ1V4uPjo6IbKxCBa2IbNgGJgETwnCQL6L8YcBbTyGINEtNnDaW4pOjskBEuJGaumUrx6XL2TlYFKlq2bElz5871QBqDGh+5ubnUrFkzqZCWmppKr732Gq1evdoDqJz3xx9/rEUTeVtBVeyIcqoNkYBEMf7LzAGSsAPJqmQBsyjw3l5jixlILIxeBFF30OFAYua66ZTY0L0RRN1mTZs21UDtyy+/9IDatm3baN68eVSnTh2pkJacnEwzZ86k5cuXe/JmSHzvvfe0/Zn5c72cOKsNYU6/f4BEe34rkN9XiWVQVkkWCCQO/D+yRhcrkJj+2jCqlBDdx4VWITFz7TSKc3kEUXfaGRkZNHnyZO2R79atW2nLli20aNEiGjt2LEXjcW+nTp3ojTfeoHXr1mmPmvmxN7/nCSx6GXEGIMrWACAxMn8Vys9Lwg4kq5IFQokEn4fX+JSHxKI8SpsUnTGIZsdhBRIz10yjxIa1ACCGvbLr1atHo0eP1qJ6PD7xueeekx5F1O8dj0vs2rUrvfrqqzRr1iyaNGkSde7cGffHcH90W+EsD5YBieH5Kat+XSWWQVklWcCqWHCdtUaoOiSmzxlJleLiKsTJh4JEnqSCCKJ/R8uwxpFDPvh1tIFEzzsa0cto1w35+deck+wCSLTmn8L145KwA8mqZIFwRYPrgzdGlSGxoiKIurMJBom8zI2bZzHrNsLZ+cCCexT9ewRIDO6XIvXbKrEMyirJApGKB9/z3yhVhcRqc0dGPfpkdqaBIJEXyo7PcOc6iGYb4X30AQQ2d77NAYn+/ZFdPy0JO5CsShawKyJ837txqgiJFR1B1J2wP0jkrfYQQXS+k9bvIc64VxWhAUCitx8S5ZdVYhmUVZIFRIkJ6ZQ3UqUgsTCP0ueMqPAIou5UzJDIYxDjs7Bzh26fkOeEBIpLSdKirjy5J+mx+pT85CPyjicaUWKTOpRQozrFpaaU78hTAeMhQ9oFk0gc08Zl3StAIiBREiIhWcCd2MalEiRqEUQHOXUjJGoRxPo1Yt652XaacXGUWL8Gpb7Yk6oteZEYrHOK8ihn79LoHYV5lP3VAsp4fzylzxxKyZ0fo7jKWCPR9r0F3Fpu/4BEsX5M5wIQEiyAbfncuC1f4RJKf2245Q44Ws5Oh0QtgvhghuPKFy07WMonPo7iH8yg9NdHRB8KLQBo1pY3KLn9o4BFgF5U2jEgEZAInJNkAf0XA85iGpkKkURtL+YoL5RtBXwYEquvnEIJ9R6MimOxUiYnXhNXOYmqvvIMZW2fF71ooQUw9IleFuZRxnvjKalZPdxPwKJUDQASxfgvMwdIwg4kq5IFzKLAe3uNzdGQWLCEeC9mJ4IPlymlUzNKqJXp2PI5wW5sn+qfvOpsODQBZfaexVSlfzuqlBidPcCdcJ9QhuhO4AEk2vNbgfy+SiyDskqyQCBx4P+RNTonQ2LaqwMoLsm5jhrj2II71qTm9cvHHJogzCeC58DPs/MXUdWX++AHACKKUjQASIzMX4Xy85KwA8mqZIFQIsHn4TU+R0JiwRJKmzFYSueMiElwsBNln4SHsinzs1lKRRD9wWvqcz2ivie4qHuAdKKj9UjsDEgMz09Z9esqsQzKKskCVsWC66w1QidCYtrkARSXnAhIVDSKE1clhaovn2QZELO3zaOMd17SljeqOrEfyTrSpg6kjLfGEe+G4w8I/f0v++uFlNyuKbSoqBYjAbhofAeQaM0/hevHJWEHklXJAuGKBtcHb4yOgsQ9iylt2iA4ZJUdckI8pU0eGBLCsncuoGqLX6Dktk0qZO9tHitZdXxfyvpidsjZ1gyx8TWqQ5cq69JhZQckBvdLkfptlVgGZZVkgUjFg+/5b5ROgkSO9CCC6NxHZFYiLAn1a1D2jvlBITFr0xxtUetK8XEVC15x5cvyVJ3UP2h5OcLIS/dUcvD4WCv3Btc4p20BEv37I7t+WhJ2IFmVLGBXRPi+d+N0BCQWLKa0qYggKu/E4+Oo2qLngwJXxtsvUVzVyhULh36iSlUGddQW2Pb3yJn/x+DLi4Arf4/81B11ij48AhK9/ZAov6wSy6CskiwgSkxIp7yROgES06YPRgQxBpx34qN1KadwSUBIzNwwm+KrpToTtOLjKPW57gHLzqDIj9EBVNEHqli0OSARkCgJkZAs4E5s46pQSORZzJMHwPHGACCyI+cxfkEjcQ1qOvteJ8RrWwUGrMPXC7V9pmMRWlCn6MIvIFGsH9O5AIQEC2Bbvhjali9txhCKS8Is5lhw0LxmZPWPJgaExPR5o6hSfLyzIbFSJUp8uCbxpJpAoJjS9XHH1yEW9BTrdQAkAhKBc5IsoP9iwFlMI6uQSCJHEF9FBDGWHGF89TTK2jo3IFwlNa0bFK54XcWULs0puXNzSqiTLXTGM4+BTG7diFK6P05JjzcIuj8zT5zicZOBIJG3F4yl+4a6RDeCqNsbkCjGf5k5QBJ2IFmVLGAWBd7ba2wVAYnps4diy7MYecSsO72EWlkBl5LJXDstKPQxHGZtm0c5hXnawZNEUnq0FAJjcSlJlPHOy5S9e7FWvuzdi6jawtFBo5rBxiZWy30ei2vHmHZ1DUfzDEi057cC+X2VWAZllWSBQOLA/yNrdFGFxEKOIPYX4vyj2aEjr9DRlpQOzQJG39JmDgl4zxMb1iJesNocucv68g2Kz0wL+D1L9yQhgfgxtzltfq9tuRfnv15Jj9X3+x3+XvUPXwkaibRULkCWvfsaA/YDJEbmr0L5eUnYgWRVskAokeDz8BpfNCEx/fXhiMLEgIPzB0JV+jwZEKxSn+8REAoq92tLOUVL/X63ypBOAb/nrwzm/yXUqE7ZX/kCKMNe9lcLKC7N/1I8CbWz/ZZHg8QVr1JcaoqtcpnLiff+YT2W7QJIDM9PWfXrKrEMyirJAlbFguusNcKoQGJhHiKIMQqHuiOv0r9dQLBKHd09IFRVGdg+8Pee7Rbwe3q+wc4JtbP8Rik1SOSZyulV/KYf/2BGwDJVXzmF4lL9w2WwsuAz94FgsHsOSLTmn8L145KwA8mqZIFwRYPrgzfGaEBi+txng45JC9aZ4jM1nGvKUy0CghXvaBLoPiY90Yhy9iz2+W52wRJKqJsT8HuB0vP6f1ICZX46wydthkTew9nrWgPEJzWt4/c7WiRx+USKq5Ic8LuB0sT/1dBxtO4TIDG4X4rUb6vEMiirJAtEKh58z3+jlAqJRUspGCBEq0NGPvIddGKj2gHBKnP11IBQxUsg8fjA7PxF97+/ZzGljnk64HfCuZ9crsx10++nzeMKl0+k+JxqAdOv3C9wVDRj6Rgs22QA6nDuBa693w4Bif79kV0/LQk7kKxKFrArInzfu3FKg8SiPEqfPyqgI4bDuO8wYsEW8VnplL0z8J7N8Q9WD6qFxKZ1qdriFyh97khKbPxQ0GvDtVdcWhVKHdubGPBSRzxFPOM5YBrx8VRt4XNeUMkRRP1If2MkouKAxMD6sWgbQKK3HxLll1ViGZRVkgVEiQnplDdSWZCICGJsQWBAqPrdKfJkjuorXvXAlA5V+rl8NnGcbecaqhx2P4+vUZ2yNr0esB489tJuHvi+u9qGv/sNSAQkSkIkJAu4E9u4hENiYZ4WDfLXMeJ/Mewc4+MoffawgHCV9fmsoI94HaGNuDiqOq53wDrwLOyEWpmARIvRMkfcU4eWFZAo1o/pXABCggWwLZ/Dt+WrOqkfHsc51DHJdtrJ7ZsGAaw87TEu72giuxwRpR9XiVK6PV6+6Lbh8bIeCeUzP66OKG2X6gG2CvyjEJAISATOSbKA/osBZzGNTFgksXAJpb8+Ak7UxUAQl5hAmWumBQbFvUspbdogchwoxsVRQsNalLV5TsCyZ+9ZTElN6kDfLta3SOgFJIrxX2YOkIQdSFYlC5hFgff2GpsoSKzKO6kkxMOJutyJcjSRt74zRuC8Xu9ZTNVynyOe6CLS6UacVlwc8YLewfad1qKIb78UfMKLy+97xPZ3qd0Aifb8ViC/rxLLoKySLBBIHPh/ZI3ONiQWLKG02cOc4fBd6nCc5KC1vZLzXgwMib8/ys3ePo9SerXWtt6LS0qIrn7i4rRdU3h5nIwlL4Qu6+5FlNSqUXTLCC3HtL0BiZH5q1B+XhJ2IFmVLBBKJPg8vMZnFxLTJg+gSolRdvJwoI52oAl1son3XvaKIAYY55f1xWzKeHMcpc0cSqnP9yTeik/aMawLpb3Sj6otGE3Vl0+i7F25octYmEdVBnV0tL2d9CMBZQk8DtFoG0BieH7Kql9XiWVQVkkWsCoWXGetEUYMiQWLKW3mEDhPAKtfDXDkLXtH4HUTrQCkE66pNu9ZPGaGxv1q3Ah94b4GJFrzT+H6cUnYgWRVskC4osH1wRtjpJCYNmUgRf0xIZyVcGcVrnOzfH18PFV++glr0boAUcYKhcSipZS+YDTFpWGfZsv3HO3TcvsEJAb3S5H6bZVYBmWVZIFIxYPv+W+UYUPinsWUNn2w5c4QDsba46dYtVNyu6ZBZw1XKAgGgFOeyZz+2jBt3GKs3hfUq2LbJSDRvz+y66clYQeSVckCdkWE73s3znAhMW0qRxAdutYdIhnOg/e4OEqsX0Mbd5hTlBd6DGAAcIsWTGbvXEAp3VtC42hLUtsSINHbD4nyyyqxDMoqyQKixIR0yhupZUjkCOK0QVI7TkQ3Kja6IdP+cclJ2oSUzFVTKKdwieNgkZfASZ8zkuIzHbI0DyAtpvsaQCIgURIiIVnAndjGZRUS+REzIoixC3EyAdGYdnx6FUpu2ZAy3hrnCFjM2jKHqox4ihJqVMc6nwDTqIEpIFGsH9O5AIQEC2Bbvmhvy8frIE4ZGLXO0wgUeB3bUMo/Onjx7dTnelDVif0obdpgSp85lNJnDZNypM0Yomm56kt9qPKA9sRL9UBjsa0xp95fQCIgETgnyQL6LwacxTSyUJFEdtqIIMKROtXZolzQpooaACSK8V9mDpCEHUhWJQuYRYH39hpbQEjkCCIvlI1HULABNAANQANCNQBItOe3Avl9lVgGZZVkgUDiwP8ja3SBIJGXAMFOKojS4EcCNAANiNcAIDEyfxXKz0vCDiSrkgVCiQSfh9f4fCCxcAmlvdpf6K9mOBnxTgY2hU2hAXU1AEgMz09Z9esqsQzKKskCVsWC66w1QjMkpr8xgirFxwMS8XgNGoAGoAFJGgAkWvNP4fpxSdiBZFWyQLiiwfXBG6MHEgvzKG0SIoiIzqgbncG9w71TRQOAxOB+KVK/rRLLoKySLBCpePA9/41Sh8RqC0YhaiApaqCK40I5AVnQQHQ0AEj074/s+mlJ2IFkVbKAXRHh+96N88z1K4ggAg7xAwEagAaiqAFAorcfEuWXVWIZlFWSBUSJCemUN9Kzl76Hc4iic0CkJjqRGtgZdnayBgCJgERJiIRkAXdiG9ely1cAiYBEaAAagAaiqAFAolg/pnMBCAkWwLZ8grflAyTGZsQlOTmZqlat6nWkpqZSXFyccBhITEz0ykfPN17SLHk9feOZyyAjcpSSkuJTt8qVK0vJK5AdZdwzGbZCmtb7EkAiIBE4J8kC+i8GnMU0MkCi9Y5dJSc4evRo2rx5s9fx0UcfEUOP6Ho8+eSTXvlwvmvWrKE6deoIz4uByVwvft+2bVvhebGdXnnlFZ/85syZIyUvroO/umVmZkrJT7QOkJ71vgSQKMZ/mTlAEnYgWZUsYBYF3ttrbIBE6x27Sk5w7NixlJ+f73WsW7dOCiS2a9fOKx/Od9OmTVSvXj3hcMOQaK4Xv+/QoYPwvPh+T5s2zSe/3NxcKXl17NiRdu3a5ZNfVlaWlPxU0nOslRWQaM9vBfL7KrEMyirJAoHEgf9H1ugAiYBEuw4YkChGQ4BEMXa0q+dofB+QGJm/CuXnJWEHklXJAqFEgs/Da3yAxNh0TIgkirmviCSKsWM0wEulPACJ4fkpq35dJZZBWSVZwKpYcJ21RghIjE0nCEgUc18BiWLsqBLARaOsgERr/ilcPy4JO5CsShYIVzS4PnhjBCTGphOcMWMG7dy50+tYv349ZWdnCx/f1r9/f698ON+tW7dS06ZNhedVq1Ytn7w4vxEjRgjPi2HhzTff9Mnv008/lZLXwIEDffLiuj3yyCNS8osGDCEP//0LIDG4X4rUb6vEMiirJAtEKh58z3+jBCT678RVd255eXl04cIFr+PQoUOUk5MjHDhGjhzplQ/ne+rUKWrRooXwvBgSzfXi9+PGjROeF2uAwdqcX1FRkZT96QiwAAAgAElEQVSlhHhGujkvfi8DtlXXt+rlByT690d2/bQk7ECyKlnArojwfe/GCUgEJNp1uIBEMRoCJIqxo109R+P7gERvPyTKL6vEMiirJAuIEhPSKW+kgMTYdEyIJIq5r4gkirFjNMBLpTwAiYBESYiEZAF3YhsXIDE2nSAgUcx9BSSKsaNKABeNsgISxfoxnQtASLAAtuXDtnxSxp5FwzFEMw9Aohi4ASSKsWM0ta9CXoBEQCJwTpIF9F8MOItpZIgkxqYTnDlzJh08eNDr4BnHGRkZwiG7T58+Xvlwvnv27KHGjRsLz6t69eo+eXF+gwYNEp4XwwbPbjbbkXeukQEiPEvcnBe/l7FzjYzyI03rfQkgUYz/MnOAJOxAsipZwCwKvLfX2ACJ1jt2lZwg1kkUc1+xTqIYO6rUdqJRVkCiPb8VyO+rxDIoqyQLBBIH/h9ZowMkxqYTBCSKua+ARDF2jAZ4qZQHIDEyfxXKz0vCDiSrkgVCiQSfh9f4AImx6QQBiWLuKyBRjB0rBODiKlFc1coUn5Eq9IhLr2J7uAEgMTw/ZdWvq8QyKKskC1gVC66z1ggBiQo7wUqByw5IDGybcIAFkCjGjuHYXNS1cZWTqfr7Eyhn71Jxx+7FVLlPG0Ci4AmUovy1JOxAsipZQJSYkE45RAIS1XWCwZzpqFGjaNOmTV7Hhx9+SCkpKbYdnDnf1q1be+XD+a5atYrq1KkjPK+4uDifvDi/Nm3sO25zvfj9hAkTfPJ77bXXhNeL82rbti1t3LjRJz+erOOvbPhf8LYrHBIL8yi5c3OqFBdn+34gkmgtiBGun1aJZVBWSRYIVzS4PnhjBCQGdzRwxLAPNKCmBnRIzN45n6oM7EApT7XwHJV7tabUMU9T1vZ51qKMhUuocl9xP0QAicH9UqR+WxJ2IFmVLBCpePA9/40SkKimAwS44L5BA8E1oENi1sbXKD4zzW/0r/LTT4SGRI4gdmrm9/uR3gNAon9/ZNdPq8QyKKskC9gVEb7v3TgBicEdTaROAN+DXaGBitWAGRLjq6dRxpvjKHPNNKoyqEM59CXEU/bXCwODYmGe0AiirglAorcfEuWXJWEHklXJAqLEhHTKGykgsWIdme40cMZ9gAbEasAMiQk1Mynryzc0IMxcNVWDRL4me/ci/5C4ZzGldH5MaARRv8eARECiStylVFkBd2IbFyBRrGPSnQDOsCs0ULEaMENiXJVkqjygPVUZ0YUSmzxEleLjKG3GEP+AqEcQ4+TUAZAo1o/pXKAUzKCwciygiwFnMY0MkCjHCQAQYFdooGI1YIbESgnxlFjvQUpsUofiM6pqEUKe0JJT5L1ETnb+Ikrp2kJKBFHXBCBRjP8yc4Ac6kCqSlnALAq8t9fYAIkV68h0p4Ez7gM0IFYDZkhMqFmdsraUP27O2jCbEh7MoErx8VR9xav3o4lFeVS5z5NalFHm/QAk2vNbgfy+UjCDwsqxQCBx4P+RNTpAoljHJNOxIG3cK2jAugZ8IfH+mMScwjxKbFRbixZWWzBKg8TsXbmU0r2l1Aiifv8AiZH5q1B+Xg51IFWlLBBKJPg8vMYHSLTudPQOHmfYDBpwvgbMkBiXVoXSZw6hakteoMq9y6OFcUmJlLVlDuV4IojxgESH7qZixbcrBTMorBwLWBEKrrEOioBE5zu7SIAkISGBkpKSvI7ExEQpDjA+Pt4rH86X8+LdUSIpe6jvmOvF77kMob4XyecVbUeumyw7RmIPlb7jgcRNr5c/Wk6IJx6XqB/x1VIp/bXhlL1rIVXu0UqKfgLZC5FE6z4qHH8uhzqQqlIWCEcwuDZ0QwQkxiYk9unTh/Ly8ryO2bNnU3JysnBn+Oijj3rlw/nOnTuXatSoITwvBiZzvfj9Y4/JWapk6NChPvm9+OKLwuvFMMF18Fe39PR0KfkFAphY+b8Oidl7FlPGuy9TxtIx949lY6n6yimUU7C4PKrI8BhkL3TRnwESQ/umSPy3UjCDwsqxQCTCwXcCN0hAYmxC4tixYyk/P9/rWLdunZS9m9u1a+eVD+fL+ynXq1dPuONlSDTXi9936PD74siCHf20adN88svNzRVeL4aQjh070q5du3zyy8rKkpKfaPBxWno6JObs9Z69rL/nRbQr93yiQmwLSAzsk+z4aznUgVSVsoAdAeG7vg0TkAhItOvcAYliNARIFGNHXc9BIZHHIPZ6ovzRs+AfFnr+wc6ARF9fJMI/KwUzKKwcC4gQEtK430ABiWIdUzDHEM3PEEkUc18RSRRjx2hqX88rECRqEUQGxAqAQz1PQOJ9HyTSH8uhDqSqlAVECgpp/ZEAieo6Qd3h+DsDEsXcV0CiGDv606js//mFRI4gPl1xEUS9zoBEQKJS4KVSYQF2YhsXIFFdJ6g7HH/nyZMnU1FRkdexceNGkjEJokePHl75cL47d+6kRo0aCY/WpKWl+eTF+fXt21d4XmzXhQsX+uS3fPlyKXn16tXLJy+u20MPPSQlP3+6iaX/mSFRiyD2bu0IWwISxfoxnQtUYhmUVZIFdDHgLKaRARJjExJ5luyFCxe8jkOHDlFOTo5wJzly5EivfDjfU6dOUYsW4rc2q1Wrlk9enN+4ceOE14uBaf369T75MbjJWJZm9OjRPnlx3Zo2bSqlbrEEhP7q4gWJWgSxVYWNQTSXD5Aoxn+ZOUASdiBZlSxgFgXe22tsgERAotmBhfsekChGQ4BEMXbU9atDorYOIm+1V4FjEM15AxLt+a1Afl8llkFZJVkgkDjw/8gaHSBRrGMyO4OKeo9Iopj7ikiiGDtWRDvQIPG98eVb7UlabD3SegESI/NXofy8JOxAsipZIJRI8Hl4jQ+QqK4TDOagAIli7isgUYwdg2lV2meJCZTYxJnjOQGJ4fkpq35dJZZBWSVZwKpYcJ21RghIVNgJBnl8BkgUc18BiWLsKA0Eg7QBJ+cJSLTmn8L145KwA8mqZIFwRYPrgzdGmZCYkpJCPNGAZ2caj9q1a1NGRobtMUKcvjFd42vepULWfr5Odj562XgLvr1793odW7ZsIRm7dwwYMMArH86Xd0GRMeGCt/oz14vfjxgxwraedNsZz++++65Pfp9//rmUvAYPHuyTF9etYcOGUvIz1tOpr1NTU4n7C2Pb1l+LmKnPfUjNmjX9pp+ZmSnN7oDE4H4pUr+tEsugrJIsEKl48D3/jVIWJHIHe/r0aTpz5ozfgz9jpxipc+LZpStXrvSbNufJs2ufe+65iNOPtFxO+R6vk8hbvBmPtWvXUuXKlYXbhHdcMebDr3m5HRnb8jH4m/Pi97xbiQzb8zqJ5vwWLVokJS99xxVzfjLAXoatRKfJgBiqD+HllyLNt1q1avTVV18F7EM4b/4BFGn6wb4HSPTvj+z6aUnYgWRVsoBdEeH73o1TFiT269fP73IexmVZOLIVabSPv3fu3LmgeWzbtk1KBx+s83fKZ1hMW8xjUiymLcaOkbSL559/Pmj75r6E17GMJG3+TsuWLbUfk8Y+yfy6uLg44vSDlQuQ6O2HRPlllVgGZZVkAVFiQjrljVQWJPIvcIa4YMf27dspMTExok5Yh8Rg6RcUFESUdrDOXZXPAIli4AaQKMaOkbSbl19+OWj/wW0/Nzc34jbeunVrDRKD9SFlZWURpx+szoBEQKIkREKygDuxjUsWJCYlJVGVKlWCHnYffYZKPzk5WUoHH6zzd8pngEQxcANIFGPHSNoFjxcM1ca5n4kkbf5OQkKC1PSDlQuQKNaP6VwAQoIFHtDFgLOYRnb5ytWIO1l/nSAPst+0aTOdPHlS+5XOYwMr8igtLaXhw4cTj2/yV95Y/d+LL76obY3H2+Ppx+rVq4kdr+g6t23b1pOHnhdP7qhbt67wvHgsqp6H8dy+fXvhebGdeHtDYz78esGCBVLy4jqY8+L3MidQiNaC3fT4CUHjxo1p8+bNFdpvGPusw4cPU58+fTSgtFs//ftDhg6lO3fvEfyYGD+m2xGIBAsAEn8T26hERhIHDhyodezmcT1OeM9Ox03OlmcBN2vWzOt45JFHIh4Dqjs3f2feT9mcV5MmTaQAKedvzovf8yQEf2Wz+z+eWWvOT8aEHC4nz9Y158Xv7UTL7NY/2t/nXWd4wogT+gxzGfhHlqjtGBFJFOvHAImAQ48FdDHgLKaRiYLEqlWr0rFjxzydO0cSeZbmhk2bqKCgkL755hvPZ+bOV+T7o0eP0bbtO2jDxk108NAhOnf+vCffzp07SwGJaDtS5Fdxj0Bhe3m25/HJ33xz1tNeT5w4QV999TVt2LhRWxro7Nn7n4nsM8xplZaW0dZt22jzli3EE1d4zKJ+TYcOHYT0IYBEMf7LzAEeUMAL91rALAq8t9fYREFig4YNPVHE48eP06Chw6hR02ba8cijj9HLEyZ6dbZ6pyvy/Nlnn1PHp7p58m3Zug3lLl5CunOZOnWqkA4eoCAPFGBb99qWI7R6f7B33z7q06+/py03e7wVvTplqqct69eJPq9as4bad+7iyffxJ56k9z/80FOuMWPGCOlDAIn2/FYgv+9eMkLNPRYIJA78P7JGJwoSGzZq5IHEF8eO83SyOijyefnHKzydrejOnR9RPTNwkE++rZ5sS7v37NHynTFzppAOHiDjXpDBvZd37xs0aODpH16a8IpPW+Y+5ONPPvFcI7oP4ajhE23a+eTbpkNHD5zyhDARGgAkRuavQvl5DyjghXstEEok+Dy8xicaEnkh6+Ytn/DpaLmDH/HsaGkd/NGjR/128BzFXP/Z54BERbcvE+GQkYY8sBNpWyMktmnf0W8fMmX6DGl9yJYvtxJHLI0/bPXXX329S8sXkBief4m2P3YvGaHmHgtEW3Sxnp9oSOTxO63bdfDb0Y59eby0Dv7Y8ePUtmNnn3ybPNacNm3eDEgEJAqJAImEIqTlDa9GSHyqe0+ftszA9tqcN6T1ITt3fkWP+fmB27hZc9q/fz8gUfCkSRm+1QMKeOFeC8gQlpvTFA2J/Ajok5WriDtW/Vc4nx9v/STt3l3+2DfYYyJ+bFxSUko7v/qatm3bToVFe4nHOBoHj/v7Po875HGPxjz5ddceTxMPROfv4HGzt1MGpMAeTtKAERKXvfW2Tx/StPnjlL97d0hI5OVrDhcX046dX9HW7dupaO8+4kkwxkls/voQfgoyaOhwnz5k8LDhnjwRSUQk0b30pUjN3Qx0MuouAxK5A16Yu4g6PdWNWrVpR9179aZVq9d4OlpzB80dOHfoM2e/Rs8MGEQ9e/el7k/3pm49e1GPXn2oV99+NPzZUfTR8uW0f/8Bz/ggczo8u/qFseOoXcfO1Lpte+o/cLCXUwEkAoqcBEUoi7cejZDIPxZnzJpNHbt01fqQp/s+Q1u+/DJgH8Jtn4Fw6vQZ1PuZ/vf7kKd7e/qQEaNG0+o1a+jgwUMBf3QeP36CnnthDPHj7ifbd6SBQ4bSnoJCT76ARECiIqjk3mLKACU3pykLEs+fP69FBAsLi+ioYWkcI9jxNfwoeNz4CdSjd19q8cST2pggYxSSxxQ2eawFNW/VWnucPGTEszRvQS7xr35jWvprjjgeOHCQivbupdOnva8BJHo7ZUAK7OEkDRghUW/PPJmkoLBQe5qg/8945j7k8y82EA9l6dqzFz3eug092qIlcb+hP1Uw9iHtO3Wh4c+OpsVL8gL2Ibxc1759+2nfvn0+P0gBiYBE99KXIjV3M9DJqLssSDR25P5enzp9mj74cDn16TeAnmjb3tOh6x17oDN3+J27dqeRo5/zzFr2l76//wESAUVOgiKUxVuP/iDRXzvW/8fRxqVvvkVP93lGizYG6jPM/2eIfKrH0zT+lUm0/8ABvz829TzMZ0AiIFERVHJvMWWAkpvTrAhI5F/qixYv0Tp37rDNnXio9wyKHHV89rnnqbCoyHIn7yZI7NSpE02ZMsXr4K36ZOzewVsxmvMaP348ZWVlCZ8swjtemPPi940aNRKeF0Pc008/7ZMf7ywkA/C4Dv7qxgvVy8jPaWmGA4k87nDmrNe0ISn8pCFUn2H+nPsQfpzMfcjevfss9yGARECie+lLkZq7Gehk1D3akMiPh1Z8spJ6PdPPZ2C6uSMP9Z5nUfOjI95ZxfyL3997N0EiO7P8/HyvY926dVK2ymvXrp1XPpzvpk2bSMb2dQyJ5nrxe1E7YZjBadq0aT755ebmSoG2jh07arsUmesnA7bN9XTC+3Ag8d333tfGGhqHpoTqL/x9zisi8IQ3425R/voO/X+ARECiIqjk3mLKACU3pxltSMzP3039Bg4OuB6Zv4482P/adepC8xfmAhJNS9wAEr0fZUYKQYBEMXa0Yn+rkPh1fj717T9QG6scrG+w+hlPjsldtMRSHwJIBCS6l74UqbmbgU5G3aMJibxMDa9zxmBntQMPdR0/Nurdrz/t2VMQspNHJBGRRCuwYrwGkOgsSOTHzGNfGq/NPg7VN1j9nIe88IzoXbvyQ/YhgERAoiKo5N5iygAlN6cZTUg8cuQIDRg81GvmodWOPNh1PLZo8tTpxI+y9cdC/s6ARECiEQCtvAYkOgsSeaksjiLyj8NgfUK4n/Gs5/m5uQGXxtH7E0AiING99KVIzd0MdDLqHgoSeQwYT3bgczCnaty7We9QzeflKz6hjk91E9q5szPgSMCQ4SNDjk10EyS+/PLLtHXrVq9j5cqVlJaWFvQ+BrvHgT7r0qWLVz6c72effUYPP/yw8Lx4Eoe5Xvy+e/fuwvPi+s6aNcsnv2XLlknJq2vXrj55cd1q1aolJb9A97Oi/m/lcfPb77wr9EmEDpO8UPeYl8Z79p839136eyuQmJiYSAkJCUHvGfZulgObimAMiinTAjJAyc1pBoPEKlWq0K783XT1h2tUUFhEmZmBZ6tagURecqLlk22FQyJ39LwMxrbt2xFJ/H1s4uLFi7U13vgRv37w1mI5OTlBnVckgDBixAhPHnpePBGgefPmwvNiYNLzMJ7HjBkjPC+2BU/2MebDr/fs2RPyR1Mkdhw1apRPXpxf06ZNpdQtkjLK/I4VSJz46hRioNPhTuS5zzP96ciRo0H7kFCQOGz4cLp85Sp9e/G7oJOpAImARJmc5Oq03Qx0MuoeCBI5YrMrP5+Mee7bf4BSU1P9OqxQkMjOrv+gIdSiVWspHTyvnbju0/VBO3g3RRLz8vJ8bHHo0CEpkDhy5EifvHjsWIsWLfxqxQ5oMCTqUR3jedy4ccLz4nKuX++rqaKiIimQOHr0aL91AyRe8NiFnxg0aRb+kjdWYLJzt+60Y8dOT15GfemvA0EiP2mZMOEVr/7y7r3fqGfPp/3qEpAISHQ1yMmsvBFa8Np+QwsEifyr/uatn706PbZ39x49/HZ6oSCR91/msUTNHm8lBRLbdOhEy1esCNrBAxIBieECKiDRWWMSeYKJ3WVvAgFj+85P0afrPwvahwSCRP7xzHtEm33Sho2b/P6gACTa911mW/N7meyBtBWxgD9h4H+RN7hAkFi/fn268eNPPp0eL9Lsz9GGgkSetCITEnm9sw8+/ChoBw9IBCT6026w/wESnQWJvI+7TEhctXp10D4kECRWrlyZdu8p8Okv1677lOLj4336TEBi5D4rmL9XBGNQTJkWCCYQfBZ+wwsEiSkpKbR9+w6vTm/3nj0+nZ3uYENBIm+hxZDIO6UE+iVv5/+dnupGK1cF7+ABiYBEXa9Wz4BEZ0Eir7HapFlzKX1Il2496IsNGyKCRNbTs6NGET9i1v3Qnbv3qG3bdn77TEBi+L5Kt2uws0z2QNqKWCCYQPBZ+A0vECRyp/dgjRo0adIkeu/99+nl8ROCjmcLBYm8Fd+IZ0dTK0kTV3r37UfrPwv+qMhNkMgTV9jmxmPfvn1B76FVcDJfN3z4cK98OE+ZE1eMddJfy5q4snbtWp+67d6926/jN9sl3Pc8cUWvj/HcpEkTKfmFWz7Z11uZuDLquRekDVnhKCWPw9bHH/o7B4oksm14XGK//v1p6bJlNHfePOrQsWPA+wZIDN9XWfHvimAMiinTAlaEgmusN8BgkBiOUwgFibyG4ZSp04h3N7ATMfT3XV4CZ+CQYbR9x46gHbybIJGdmXl7N2zLF35UDOskhm+zcPoN47VWIJH7kA6dnxLeh/D+z/wjllcA8AeH+v+CQaKxLqFeAxKt+6hw/LlM9kDailggHMHg2tANMVqQyJ3sBx98qG3J11jwQrg8HvH5F8eE7OABiVhMO5TzNn8OSHQWJL79zjvUd8AgYVvy6T86O3XtThNemUgnTpwAJP4W2m841bcqgjEopkwLOFWcqpYrmpC4fft2emHMOOrQRVwkgAex82Oihbm5dPRo8DXOAImARDMEhnoPSHQWJG7esoWGjxxFbTt0EhZN5BUXeLz0m2+9pT3u16OG/s6IJDobIGWyB9JWxAKqwphTyx1NSORxagsWLqT+gwbTYy2fENLJ82Dzl8ZPoFWrVoXcUguQCEgMBYXmzwGJzoLEAwcO0IIFC+iZAYOELarNa6xOmDiJNmzYEHJrT0AiIFERVHJvMZ0KW6qWK5qQeO7cOW1x4mnTZxCvd8bjgPTHPZGc27TvSEOGj6DFS5ZQcXFx0MdEHBVwGyTu2rWLjAdPwuBZ62YQsvu+Xbt2Xvlwnhs3bqR69eoJz4snBxjrpL/u0KGD8LzYLlOnTvXJLzc3V0peXAe9PsZzZmamlPzs3nfR37cyJpEn9Hz88cc08dVXqZfNPoT3f+Y9m0eOfo6WLl1KvNi8v+ih8X+ARECie+lLkZqrCmNOLXc0IZE725KSEnrrrbe08T89e/eNeKYid+6Dhw2nBQsWakBi7MgDvXYTJDKgMbwZj1atWvlds82us2eIMebDr1u3bk28raPdtP1935wXv5cFUg0bNvSpm6wdULKysnzy4rrx3un+7BBr/7MCiXofsmzZmzTu5fHUo1efiNZNfKRpM20SHf/IZOjfsmVLSEDkvAGJgERFUMm9xXQqbKlarmhDIne0O3fupHfeeYdemTiJBgweqi2LY2WBXO7YeSYzPx7icUnzFiygDz74IORYRB0a3QSJsQYQqE/0HvtWlK2tQiK3523bttHbb79N41+ZSP0HDqZWbdoRRwatPJHgoS7devaiZ597npYsWUKffPIJnTlzBpCo8IQV3f+6l4xQc48FdDHgLOYXnUxI5P17eRyiuQPmx86ff/65FlGcv2ABjXh2FPXo3Zc6PtXN7zgj7vwff+JJrWPnsUiTJk8m3pv4vffeo9LSUq/OnZfa4RmKnO/Zc+e8PgMkxj5oVBTgIF/72vIHiSdPnaKjx475TCjhPmXNmjXaZJN58+fT8GdHUfdefbTHx/yD0wyM/L8n2ranrj17aT9Mp0ybRnl5S7Ufq/x0Q/8hyWfun3gbUT74tfEzRBLF+B1Z/tsDCnjhXgvIEpdb05UBiWfPnqP5CxZ6ftXzL/ePP/nEq7NlmOOB4u+++64Gi7Nff51eGDOWho18VuvEn+k/kPo805/6DxpCg4eNoFHPPU8vT3iFli1bpkUQPvroIzp48KBXmoeLi7XZ07qD4EdRX+/K9wxGByTad+SAIdhQlgaMkMg/9KbPnOXpQ3hv9s83bPS0ZR3c+McmP5XgqOKMWbPouRfH0LAR5X0Iz1ju02+AVx8y6dXJ2vhDvp7HNpaVlXn1IYcOH6YRo0Z7IJP7EN5pSs8PkAhIdC99KVJzt8KcrHrLgMTFect8JqUwKG7fudPT2eq/2Bn0OCLInTYfHCHkcYYcHZg3f4F2zl20iN58803PNQyX5vXMeED7C2PHeZyK/tiJZz/rA9IBiQAcWYCDdO1rywiJuYsX+4w15D5k6/btXn3I2bNniWc887ATvQ9ZsoT7kAU0f75+zKdFixZrP0b5GoZKflx98uRJr7S4T+nV9xmfPoRBE5DobDjU/aMiGINiyrSALgacxTRa0ZDIj2d41rEOacYzr5God7bGMwPel19+qS1jw8CoRwb0Tp/ff/jhh9rMaB34jN/n1/x4uU0H33x5BvWmzZu1fAGJ9h05YAg2lKUBIyTy4tbGvkN/Pfv1OX77EN4b/osvvqCVK1dqTyf89SH89OGzzz6jw4cP+01j244dAZfmKtq7V/sOIoli/I4s/y2TPZC2IhaQJS63pisaEhn4Hm3+uN8Onh/jmOHO+J6/y7B35MgRbRY0d+b8mhfJ5l/5/IjaeL3xNV/zRJt2fvNd//nn2vcAiQAcWYCDdO1rywiJ/n7wMShOmT4jYB/A/QGPVeS+gPsNXhaLf1Ra7UO+3Lo14GoLPGyF0wckAhIVQSX3FtOtMCer3qIhkTvSKdNm+MAaR/SWr1gRtIM3Ql+4rzmSMHDIUJ98Oaq59/coACDRviMHDMGGsjRghMRXXp1MvJqBHkHkM481XrN2nbQ+hMcn8soJxjz5Nf9P/4EKSAQkupe+FKm5LFhya7qiIPHhhx/2jPFhYBs2YqSns+XOfcas2T4zBcMFwVDX5+/eTa3atPXky2D64UfLPflOmTLFFevNyXLiSBeAKFMDdevW9QAgT0Lr0buPpy3z7OQFuYuIxyCG6gfsfP71rl3Uul0HT75NHmtOq9es9eT54osvCulDhgwZSnfu3iO3+h1Z9VYEY1BMmRaQJS63pisKEitXrkwFBQWezpQfHa9es4bemDefvvxyq+f/djpwK99lQH373Xdp/sJcbUC7/h0uT/v27YV08DIdJdIGiLlVA7ybTmFhoaev4PHNK1aupDlz59HOr77yRPP0Ni3rzBHFJUuX0eK8pdqjaj0fBtTGjRsL6UMAiXIikjLZA2krYgG3wpyseouCxP/+7/+m5s2bS/+lr3fY4Z55RjSDrFsccHJyMlWtWtXr4B1Q2BGLtkFiYqJXPpxvamqqlN1duOzmevF7LoPoenF6vCH7e/oAACAASURBVI2hOT9ZOvJnR85bxj2TYSu7aXIfwjvMyI4Whtt36NfzTlH/+Z//KURngERAoiLIpV4xZcGSW9MVCYn/8i//Qk2aNKHp06fTrFmzHHO88MIL9B//8R/COni7zjAa3+exU/n5+V7HunXrpO3dbM5r06ZN0vZuNufF72Xt3Txt2jQvG3JesvZu7tixo7Z3s7l+vF1fNDTjhDy4D2nTpo3j+hB+zMwQC0iUA3ei/K96RIMSC7eAKDEhnfLGLgoS2cH867/+K3Enzwe//vd///egx7/92795rte/F845VPrG8nC6//Vf/+UaZwtIFPPYGpAoxo5WAdTYZmX3IVbSN5aH+xAGRat1CXYdIolyYFM4cCBB9SwAuBPbuERCIkOYDnn9+/f3jC3SH9eYz7ygbaSgmJ2dHTL91atXe8rD+QTrtGPtM0CiGLgBJIqxo9X2ZexDWMPmPsP8nhfN1vuccM8csTSnZ37PfZSeLv8otVqPUNcBEsX6MZ0L1CMalFi4BXQx4CymkYmERL1j5M60X79+ITvgrVu3ao+BGeDCPaxA4qpVq7SIpqhf/3r9VDgDEsXADSBRjB3DbTPch/AjXjO0md8zJIbbd+jXt23bNmT6vMg/Xy+6DwEkivFfZg4QDhxIUD0LmEWB9/YamwxIZIdQs2ZNWrFihbYINi+EbT52795taxwZD+bnfZzN6ervi4qKqFu3bsJ++Yfr5Cr6eobEr7/+2utYu3atlMk7PGvcnNfGjRuljEmMj4/3yYvz5vF8MmzOkGiu26JFi6TkxXUw58Xv3TQm0XgPa9SoQfw0QG/T5jOP3WzdunXE94J/aC5fvjxo+rJWRAAk2vNbgfy+ekSDEgu3QCBx4P+RNTpZkGjs7PE6+tEY3gPbHHXh3SdycnIidqqB7uPIkSN98jp16hS1aNFCeF61atXyyYvrOW7cOOF5cX3Xr1/vkx//AJEx43j0aP87EjVt2lRK3QLdT/xffnsFJEbmr0L5eeHAgQTVs0AokeDz8BofIFG+Q6gIpwtIFHNfAYli7FgRbcDJeQISw/NTVv26ekSDEgu3gFWx4DprjdCpkBhfLZWSWjyMCEqlyJw0IDEyu5nBApAoxo5mu7r9PSDRmn8K148LBw4kqJ4FwhUNrg/eGJ0IiYkNalLWxtcoueOjgERAopcG8LgZ0BYLgAlIDO6XIvXb6hENSizcApGKB9/z3yidBonxWemUvWM+5exdCkiMEBDZiSKSKAamEEkUY8dYADuRdQAk+vdHdv20cOBAgupZwK6I8H3vxukkSEysV4OyNszWABGQaM85AxLt2U8HAkCiGDvq9sS53J6ARG8/JMovq0c0KLFwC4gSE9Ipb6ROgcSEGtUpe3t5BJEBEZBozzm/9NJLtGbNGq/jnXfeoYyMDK/HtyKcdvfu3b3y4Xx5+aMGDRoIz4uXLTHXi9/36dNHeF5sG95e0pwfL70kwm7mNHr06OGTF+ddt25dKfmZ88d7e20uHPsBEgGJwuEICZZbAHAntnE5ARIT6uRQ1hf3I4iARPvOCotp27chO30spi3GjuEAlBuuBSSK9WM6F4CTYIEHdDHgLKaRVTQkJtTOouzt8zyPmHVARCTRnnMGJNqznw4qgEQxdtTtiXO5PQGJYvyXmQOASLAAIPE3sY2rIiExoVam3wiiDoqY3Ry5gwYkRm47I8gAEsXY0WhTvK5EgESxfkyHRSASLABIjBFITKyb4zMGUYdD/QxIjNxBAxIjt50RYgCJYuxotCleAxJ1qBN9BiLBAoDEGIDEhJyMoBFEQKJ9x/zMM8/Qm2++6XW8/vrrlJycLHwSRLNmzbzy4Xznz59PvPeuaCDQ9+w216158+bC8+KyDx8+3KdusrYA5DqY68Xvq1WrJqVuou8N0rPebhFJRCQROCfJAqJ/ebg9vWg/bk6sX8MTQcxcP5N4Z5XExg9R9s4FPuMSEUm07nTgoGEraEAdDQASAYmSEAnJuh3qRNc/mpAYn5lGWRte88Bg1ZfLly2Jq5xM1T+e5Pk/IonqODuACe4VNBC+BgCJgETQnCQLiIYkt6cXLUjkrfaMs5izdy8iXhsx6bH6FJ9RlaoM6wJItLHDChx1+I4aNoPNKkoDgERAoiREQrJuhzrR9Y8GJMalVdH2YtYjhHyutnSMNs6q2qLnqcrgThSXnko5RXleoIjHzXDiFeXEkS+0J1MDgERAImhOkgVEQ5Lb05MNiYkNa3lFEDVQLMyjlJ5PaBHEzHXTKSPvRaoUH0fp80cBEhFNxCQNaCDmNQBIBCRKQiQk63aoE11/qZCYnERZm+d4gR9DIj92Tqj3ICXwMji7colBkR85p3Rp7nUtIomI5siM5iBt6KuiNABIBCSC5iRZQDQkuT09WZCY2Kg2Ze/w3otZf9yc8e54qpSYUA6FhXmU9eUblFAnm+IfrO71WBqQCCdeUU4c+UJ7MjUASAQkSkIkJOt2qBNdfymQmBCvgZ8OheZzcqdm5Y+TEuIprkoK8ezmSnFxVCmuElXLfc4TTQQkwlHLdNRIG/qqKA0AEgGJoDlJFhANSW5PTzQkJjaqRdnb/O/FzLDIj58rJSZSXGplSn22K6WO6qYdKV0f18AxuV0TQCLGpMX8mLSKghPk6wwwBiQCEiUhEpJ1O9SJrr9QSEyIp+wdgQGRITFtYj8tapjcvqkHBvn/2V8vpErx8dpn2Vvnap8hkugMhwawwH2ABsRqAJAISATNSbKAaEhye3qiIJEjiDy20Pxo2c57QGLkjmnYsGG0evVqr2PZsmVStuVr2bKlVz6c7/vvv0+1a9cWHhHkbfnM9eL3TzzxhPC8GIxefPFFn/ymTp0qJS+ug7+6ZWRkSMkP4Bd5+7JrO0AiIFESIiFZt0Od6PoLgcTEhHJA3LOYcgQeHG202xm79ftjx46l/Px8r2PdunWUkpIi3Kbt2rXzyofz3bRpE9WrV094XgyJ5nrx+w4dOgjPi7Uzbdo0n/xyc3Ol5NWxY0fatWuXT35ZWVlS8nNr23BCvQGJgETQnCQLiIYkt6cnAhLjczK02ck8Q1nkEVclGc4xwvGJgEQxUSJAohg7OgHMnFQGQCIgURIiIVm3Q53o+ouARCd1vihLuVMHJIqBG0CiGDuiXXrbEZAISATNSbKAaEhye3qARO/OO1acGSBRzH0FJIqxY6y0K1H1ACQCEiUhEpJ1O9SJrj8gMTad4IQJE+jTTz/1OngySWZmpvBH+E8//TStWrXK6/j444+pYcOGwvOqVauWV530Og4YMEB4XgwEc+bM8aoX1/Ptt9+Wklffvn391u3hhx+Wkp8o4EE64fchgERAImhOkgVEQ5Lb0wMkht/Bq+AU8/Ly6MKFC17HoUOHKCcnRzhwjBw50isfzvfUqVPUokUL4XkxJJrrxe/HjRsnPC++z+vXr/fJr6ioiHgCjWgdjB492icvrlvTppjAJdrWFZ0eIBGQKAmRkKzboU50/QGJgES7DhOQKEZDgEQxdrSr52h8H5AISATNSbKAaEhye3qAxNh0TIgkirmviCSKsWM0wEulPACJgERJiIRk3Q51ousPSIxNJwhIFHNfAYli7KgSwEWjrIBEQCJoTpIFREOS29MDJMamEwQkirmvgEQxdowGeKmUByARkCgJkZCs26FOdP0BibHpBOfNm0cnTpzwOvbs2SNldvPAgQO98uF8i4uL6dFHHxU+uYN3HzHXi9+PGDFCeF4MHR999JFPfl9++aWUvIYMGeKTF9dNxixxlYAqFssKSAQkguYkWUA0JLk9PUBibEIi1kkUc1+xTqIYO8Yi6NmpEyARkCgJkZCs26FOdP0BibHpBAGJYu4rIFGMHe0AVSx+F5AISATNSbKAaEhye3qAxNh0goBEMfcVkCjGjrEIenbqBEgEJEpCJCTrdqgTXX9AYmw6QUCimPsKSBRjRztAFYvfBSQCEkFzkiwgGpLcnh4gMTadIEPirl27vI61a9dSSkqK8EkX7dq188qH8924cSPVq1dPeF6804m5Xvy+Q4cOwvNiOJk6dapPfrm5uVLy6tixo09eXDcZWynGInipVCdAIiBREiIhWbdDnej6AxJjExJVcpgoKzToNg0AEgGJoDlJFogUku7cuUtnz52jo8eO0ZGjR3H8boM9BQVSoiJu6/RRX4AONAANWNVAz549qbSsDH7I4ItPnjpFN2/dokh9PH9PEnYgWZUsEK6Afrp5i06cOEn5+fk4/NiAHwta7dhwHZwgNAANQAP2NdClSxdtaAH8kq9f3r9/P1387ruIYFEllkFZJVkgHEi8e+83KioqAhz6gUO9c9qwYQMgsZL9Th+OEzaEBqABqxro3LkzIDGIX2L/9M3Zs2GDoiTsQLIqWcAqJP7y6x06cOCABoh8vnnzJuHP1wI//vgjIBGQCA1AA9BAFDUwdOhQ+vvf/+7bIbv8P3/5y1/ozJkzmt/mHaKu3/gxLFBUiWVQVkkWsAqJ331/SRNaYWGhy5td8OoDEhH9sBr9wHXQCjQgRgOAxOB+6ejRo5r/LigoACRKYqmYTdYqJJ44WT4O8dy5c8HV6PJPAYliOn04T9gRGoAGrGoAkBjc8f75z38mjiTyY+effrppGRRjFnxQMesWsAqJZWVlmsAuX74cXI0u/xSQCMdm1bHhOmgFGhCjAUBiaMerDxe7+sM1QKJ1RMKVViGxtLRUg8SrV6+GVqOLrwAkiun04TxhR2gAGrCqAUBiaKd78OBBzYdfuXoVkAj0s24BQGLoxhXOFYBEODarjg3XQSvQgBgNABJDeylAonUuwpUGCwASQzeucK4AJIrp9OE8YUdoABqwqgFAYmgvBUg0gA9eWrcAIDF04wrnCkAiHJtVx4broBVoQIwGAImhvRQg0ToX4UqDBQCJoRtXOFcAEsV0+nCesCM0AA1Y1QAgMbSXAiQawAcvrVsAkBi6cYVzBSARjs2qY8N10Ao0IEYDgMTQXgqQaJ2LcKXBAoDE0I0rnCuiAYlxlSpRtfRkysxIoYSEOOzsYNjZIbN6CqVVTYJNDDaxAiLJyQmUk1WZ0mG7sLVTOSWBWHdxcWKAx8r9UuEabodsl6Sk+LBtGm79AImhvRQg0QA+eGndAoDE0I0rnCtEQ2JmRjK1fDSTJr/QhH4oHkzXS4fQjbL7x/WyIdr/Lu4bSHMmNqfWzbMoJzNFeqccbicu+vr0tCRq2SyTpo59lC4U9adrJYO97MI2ul46mM7k96PpYx+lx5tWp+rVkmPeLlbsXP+hqtSuZQ59tLANXT40SLOTUVO67fZ90ZMG9apLzR7JoOQoOHorZa/Ia+Lj46hJg2rU4Ykc2rWmm6Y5bn9G2/F71uLmj7pQq2aZ1LBeWsxrjn+oNm1YjZ7p9hAVru/h3y6lQ+jSwYGUv7YbdWtfQ7NLosAfuIDE0F4KkGidi3ClwQKAxNCNK5wrREFiRrVk+nBBG9q/oacPGBqdkvk1Q+Shzb1o3qvNKSU5ISYdVN6sVlT4WY+w7PJDyWDNlrnTHqeqqYkxaZdQAJVZLZmW57alU/nPeIGNWUPm9+zcd3zSlcY/+wgxKIXKJxY/796xJm36oDNd3DcgLNudLehHn7/XkZ5snhWTdhv4dB368uMu9N3+gWHbZeMHneiRh9OF2AWQGNpLARIN4IOX1i0ASAzduMK5wi4kVqmcQF3b1aCjO/qE1emaHTu/ZwfVv0cd4jRVd9wJ8XHUr/tD9O3e8Jy0P7uwQ+veoWbMQrT5XjMUz5vcIiyo9mc3/t+OlU9RY0GO3VxOJ75vUDeN1r7ZwXZb5AjjikVtqW6tVOXbIg934Qjp8kVt7duldAgtndWK6ti0CyAxtJcCJFrnIlxpsAAgMXTjCucKu5C4Zll74qiXPyf9Q9kLdKpkFR0v2ULHSr7UDn59umQlXSmb4P87JYOJ01R5rBk/Wl7/dge6WuzfLlfKXqaTJevomMcuW+h4yebf7fKyX7tcOTyItq14KuZBkR/J7/2ip18b3CgbSt+XTqfjJRt8bPdNybt0rexZv9/jHx+vv/KY8rATCkpH9KtPJ7/2H3W9XjaSzpcu+r0t6u1xC50o+YK+LV1A/Lm/NnxsZx/q81RtpW03pHddOr07kF1G0IXShXS8ZJOXpsrtMs+vTdhObJceHWtGbBdAYmgvBUg0gA9eWrcAIDF04wrnikgh8cGsylTwaXefTvRK6Xj6tnQ+lRYXUXFxcdCjpHgfnS9dSpf9AOOeT7sTj0UL5Rid9nnd2qm08YPOPna5XDqRzpa8TSXFh4LahG1WUnyAzpcupitlL/mks3VFF6pdo4pydrFyn9o8nk3HdvY11ZnBcBqdLllFJcWHQ9ruaMlXdLF0Dv1Q9rwpnSHEj+6tlEO1azhqPWZoI7p0cJBXnRmaL5a+TkdLtoW0W3HxYTpWspm+L51KN8qGeaXz/YGBNLJffeVsl5gYTy+PfMQnIn2tbCR9XzqDjhVbs8uJks+0HyfXy4Z72YWHNXRrXzOiiS6AxNBeCpBonYtwpcECToTEn3/+WeuEDx8+TIcOHdIOfl1SUkI//fRT6NZQgVdECokMceZJKd+UfEilxXstOCRveOTvnCpZ6dUB86/1XWu7KTXzN6t6CrFdzBGZb0o+oNLifRHYpYhOl6yg6wanzTY/sLEncbRSNZgJVt4nW2T5jBO7XjaCTpZ8ZgmsvX+QHKay4t10sfQ1r3vBE4N4jGOwcqj42YRRjX3a4uWyiXS0ZGfYmispPkhHS7bT5VLvSD9PGBrSp55StntlVGPiCLyxPV4qnUpHir8mhmJvzXj3Sb6fHaKjxdt9Iq4M0D071grbLk6HxD//+c906tQpMvo09m38/sKFC/S3v/1NutcCJBrABy+tW8ApkPinP/2Jzp8/T7t379Y2Ic/Pzw96Pnv2LP3xj3+U3rDCzSBcSOTxYps+9I6UXS17kfjXtm/HGqrj9f6cH0lfLRvr1al/+nZHJR49pyTH06dve48Fu1o2RnuMbNcux0s20tVSb7t89k7HmHn0zJHRki97e933S6WTqaR4vy1NcdT2m5L3vB5DM2QzVKkIg/7K3LnNg9osXB2EONrFj0/DhyDvtsiw+F3p614/UHhWfvtW2Y63HS/tM+jpuiZwHqrZxb6mDtLF0rneWj04UJtR7+/+BPqfEyHx73//O12/fp32798f1Jfpvo6h8fbt2+G6HMvXAxKtcxGuNFjACZDIkcO9e/d6NaSTJ0/STzdv0c1bP2sHvz595ozXNUVFRY6LLIYLiS8MbuC1fAsD4pHiXbacuRGi+DG1GYhmj2/m+DXd8ma29HIcHAXjaJaxbnZeHy3eSTzGU4cBHgc6dngjxzvsQE5S/39SYjwVb+nlqRfX71Lpq7YB0WjrkyVriccz6rbj6M9jjTOUt92jjTJ8JkadLX03gsirNyDqtmNQPF+yxGM3th9PUNPvnVPPaamJdHKXcQziUC0ibxec79vlAJ0vWeRll0Obn6aaOZUt28ZpkPjXv/6Vjh496hX0OHDgAF27fsPj027eukWXL1+hgoICj1/bs2cPHT9+3DL4hXMhINEAPnhp3QIVCYn/+7//S9euXfM0koMHD9HZc+fp7r3fKFC57t69R99evKjBAv8C4wZ2+fLlcNqK1GvDgcQ6NVPpgmG2LoMQT7jQO09RZ44oXisb5emEucOvXcO5syx5RulpwzIt18pG09GSHcLtwoPrOW0P7BwcSI82qmbZMTnRqfNYN+OakfyYVJQzN+rxTMmHXlGxAxufpox0ddeh5HGI77zR2qMFhmAex2qss4jXDIrfl84y5FM+ttOpSwuxXVYuaedV3gulC4jrIcIeehqcHo/31NvitdLBNOn5JpbbopMg8e7du5ptdP90/PgJ+vn2LwF9Gvu6Gz/+qMEhQyJ/j0GRQVPkHyDROhfhSoMFAsGY+f+lpaWaeK9evSpMtwxU+uPlw8XF9Oudu0EbkrFMd+7eo7KyI1qZOA2R5bJTwXAgcfVS7873ZMmnQjtevQPm85mSjzwdMHfEHy927liyJaYoIo9BNNZF5GuewGGcWPD2nNZKrwV42BRF5B8IIu11P63D9G3p/dmqPD5xqGJj7IyQXy0tyWu8HQ9tiGQ88H37+I8m8uelxYV0pfT+rHueKezURbe7tK3h1W9cLp1ExRYmi1mxg/kafuphnBXO4x8zq1v74eEUSPzLX/6ijTNk0GO/xE/CjH4r1OvvL132RBV5vCIHUkT9ARIN4IOX1i0QSrT656Ih8X/+539o3759WoM4cuRoWA1JLxOfj584oaXBj57v3bsnqj1FnI5VSDRHy0I9EmT785jNS5cuaccPP/yggbH+/ty5c9rEHnPHa3zPMxD1X+q8bluLptUt/1I3OlSZr+vWrkqXD91fmPeS5pQCO1yuH9ddtwP/WOBDf882Y9sZ7WB8zSBgXD6II5g1sq0/5pJpi3DTHtirruf+8n0+W/p2wHqzDcrKyujixYseW3FU/8qVK573p0+fDvp9ju7qeuLz1hVPOU5PVm34yeL7P9h4HCJHmY06Mb8+ceIEff/995qt+EkG247Puu6OHTsW9PvlP07u79YybdyjjrMdj0V8b96Tnntc/qRjY9B68TAh3S6sJR6Tp9vlu+++0x7Bmm1pfM8/lI2znhdNb2nJLk6ARAY6jgAyIBYWFdGPP/0UkV+7cuUqFRQUaumwzUT9ARKtcxGuNFjACFzBXouGRD09flx8J4wIormMHH3ksR7cMI8cOSKqPUWcjlVI5KiL0cGeKlkTsPO9desW8SDoYL8q+TO+hvM3drrG17wenrEDnvGS8xwTL6titMuxkq0B68N1DWUXvpF8DduQZ8cb7aG/PlHyuVeeE55VcyKGcQF2joQFivgwHPIPKrZLsD/WFM+6ZEel28p85kkd+v3iSSwPKgjYHMUzbq/3XemsgPVlcOZoUbC2yDblz/lxIc9oNdus/P1hr0ll54v6W4Ihq9Ar4jrec/mUYSzi5TKOIvqfxfzNN99oWrFiF56kyBr0ZxdeteBy6SseTfHYRF7lIFR9nACJN27c0PwQ+6KrP1yLCBB1/8Y/fDkdfvwcqp0Ga8PGzwCJBvDBS+sW0EUZ6qxDnYjHujyDi8XPBw/kDZV3qM+vX7/heWzN4FCRf1Yhkbek0p0rT1Yxj/HhTpR/gfPSCeH+sXPi+2SOoHHU7Iey5zz5bv24C/G+q6E64Gh9zgt+G5e84Qifv0d+HKGIZMkIdu4c6fHnoHhBbv1+lG3r7Si7WLH/Y49keG0ZVz4j1zsCywPpI11CiqGSl+owO3ae3crr5Om2m/tqc8foyYrd+JrnBzf0lJ+XR/I37OPMmTP066+/htsUNVjkHyj+YJEXwdftxmfeaclqmaNxXe8utb3Kd7Lkc5/7z5H6SGfkBrLL2dJ3PPnypCgrTzwqGhK5P9J9JEeZQ/msUJ//8usdz6xojkqHgm8rwgQkWuciXGmwQCix6p/rDUAEJH777bfar6TS0rKgk1T0vK2cjx49pqXJjzsq8o9/TVrpwI1rIn5T8r5P5/vLL7/YrgY7djMQnS+9P7vyQtEASk6Kt1ReK3Wye0292lW9JqxcKM31sgtrkKMQdv/YLmbY+ab0fY9jYoet2vZpfbrW9tqp50TJeq86crsQ4Wi4/Xvb7rC2kLIOOye+7usYPVnRo/ZIde79R6o8kck8i17EIz+2vRkUOR/jDPs3JjoLsHmnJv2+cjm973uxNvzFrqb4+7ycmTFtXo9Sz5fPLw4NverAkCFDhEXcIulfuF/ioAc/GbvxY2SPmc1+7odr1zWfVlhYSDw8y+4fINEAPnhp3QJmYQZ6LxISuUPgUPrZc+ds/+LSy3vp0mUtmsiDfUXPCguncfIYrwceeCDo8XiTKoZOcCidKLk/zofHtPz222/hZBn0WgYi/mWrd8I8kcHYAWdl/HfQsoaqi8jPa+dUoiuH7i/We9IAOhwF47qI+mMbc5q6XTgv4wSWJ5qlOsYuVmw8fuTDXve1rOT+ckH8KJCjqKL+OBqp243PPAtY1xRv2Zec8M/K2O4f//Ef6PN376/HyRFl4yNVjlqLetzHQMTj9XTbmR+tfvFeB/rDH/7REbb7wx/+4LXjDM881svNwzZ4TLSoP7avcUgDr8dp3OHn3TeeCGmTNm3aRPR0QVQdWCfs03icfTgTMHX/5e/MkzP37t1XPgHm5k3bRQUkWuciXGmwgD9x+vufSEjU14W6du26MEj88aebVFBYSDyBJZJHtLZb4O8JWIHEPl2yPE6Vt/o6UsI7FhRrY+ZERBDNdeElGfSIIjsm3aHzuVfn6iE7YCuQIuKalk0re5VNX/aGtSfil7Q/u+jjFHnso/Gx6TNPZTnGLlZsmzu1mcF2Qz0OXVZk3RhRPFv6nifvb/f2p5yMf1fGdv/0T/9Au9Z09ZTfCEPclmX83Z8QxFHY6Z68d3zSmf7v//f/OMJ2//LP/8dTLu4nzpW+6dEUj5cT/cegyD9mdBDlcaF6P7X1484hbVLRkMhRYoZEXu7Gn/+M5H+8FBz325yuiCd4gEQD+OCldQtYFa8oSOTOgEXPBy+QbTX/UNfxUgMMiAygIh5JRtoJWoHEIb0e9HSA/IuZHzvJ3nLQOKHletmznvyH9X4wZAdsBVJEXPPkY8YI6xDP1ns8Q1LWH9uFbc97FDOw645p5DM1HGMXK7Z9f+79xcevlo3zOFuR0VfzPeBhI+zUedKVbreL+wZQrez/VMZ2f/inf6DCz7p5yn+udJlWJ4ZrkdFXo+04XT26f7H0DU/eBZ92pX/55//XEbb7r//4v55y8b3lJbT4XjPIiYqsGm3Cr7nf1meFXzBEp4s+7x7SJhUNibp/ZPuE8lVWP2dIZHuwrxQx5AGQaJ2LcKXBAlYFqzcCu79oOMqnQ+Ktn28La1A/376tQSKvTWUVHBxPbwAAIABJREFUErnhde7chRo3birsaNSoMT34YM2gR52HHqJGDev9ftSnhg0bUcOGj1Djxk2ElcNfnTgPPho1rO/Jn8sSqrzR+vyh2rU95WL73LeLuPvja5cmmk04Ly+71HGOXazYv369ugbbsaYeoUaNWFPybPfII7rtGnrybtigHtWqVcsxmrJiuwYPG23X4HfbNZZqO+4nyttjA4/tuBw1agTvO6zUR8Q1NWrU8pSrvC021MrL91ympgLZJVSdateuI7z/nDdvnuUfCjzMif3a+QsXhPk09s36Em88aczuHyDRAD54ad0C0YZEHpejL6AtaoAv14GjkjzAlw8rj5t5XFWDBo2IO0McsAE0AA1AA9CAUQM1a9amDRs2WGIzPeJ36vRpYZDIkUReQ5jhk1dlsPsHSLTORbjSYIFoQyILXd/w/NLlK8IaFC+Dw7PLOG0rj4l4XI2xQ8BrOAhoABqABqABowby8pZaYjN9XUMeumLVp4a67u69e8Q7kTEkihhyA0g0gA9eWrdAKKHqn4t63MwtTh/ke/LUKWEN6sKF8mV1eEFtK2NmAIlwBkZngNfQAzQADZg1YBUSeQ1Nhrm9e/eG3KdZ96mhzjxLmsfY8xHJGp1mugUkWuciXGmwQCih6p+LhETewoob1IGDB+nOXev7NetlMZ85LH/o0CEtTR5Mb+UPkAiHYHYIeA9NQAPQgFEDViGRn17xUyweSnX5ylUhwY9z585rPo3TjWTzALMfBCQawAcvrVvADFyB3ouERF7OhGciMyieO29/oO/58xe0tLiBWl0qBZAIZ2B0BngNPUAD0IBZA1Yhkcfa8648WvDjwEHbkMhj7Hfv3qOlx2swivgDJFrnIlxpsEAgKDT/XyQksuB5IC43KD6uXP0h4kZ1/cYNbbIKp8ML1Vr9AyTCIZgdAt5DE9AANGDUgFVIZL/DC/TrawDzrGReDNvsR6285++V/r4+Ii87JOoPkGgAH7y0bgErouVrREMi//LiHS8Y7jiqyIthWy2Lfh3PjuYV7jkNbkzh7LQCSIQzMDoDvIYeoAFowKyBcCCRYY6HUvETLT7OnAl/zUQeflVSUqr5NE7jpoCdVnTIBCRa5yJcabCADlyhzqIhkYX7xz/+kQ4cOOBpEN9+e9HSry8e0Pv9pUueCCKP2Qh3KztAIhyC2SHgPTQBDUADRg2EC4kc/OC9qDlwwQcvYXPr559DBkB4XP2NG7ywfzkgckRS1GNmQKIBePAyfAuEgkP9cxmQyOLlha95RjI3KP7ldODgIeKFQ/V8jWduSBcvfkcHDx6i/N27te/whJVwAZHzBSTCGRidAV5DD9AANGDWQLiQyL6FV9e4fPmy5s/YrxUV7aVjx47T7V9+9evX+Ckab7/HS7jpcMkRSdF/iCSGz0f4xgMPPGCEsGCvZUEiNwR+TMzbVOmTWXRg5F9TvE5UcXGJNtaDIVJvRPwZfyfSWV+ARDgEs0PAe2gCGoAGjBqIBBJ1uONIoL7qhu63GAT56RlDIS+XY/RpfA0PmxKx3I1eBuMZkAjki8gCwcDQ+JlMSNSFzI+fOYpobjh6A+Mzf8bhfI4ecmg/0j9AIpyB0RngNfQADUADZg3YgUT2Tbw0Du8Pr4+dN/oy42sdDsMZVx+u7wMkRoRI+JIRBIO9jgYk6qJn+GNg/OGHH+j06dPa0gK8ZzSDoZWFsvV0gp0BiXAIZoeA99AENAANGDVgFxKNPogBkCeinD9/XttQ4uLFi3T79u2In4YZ07byGpAI3ovIAsHA0PhZNCHRiuDtXgNIhDMwOgO8hh6gAWjArAGRkGjXZ9n9PiAxIkTCl4wgGOw1IBEdqLkDxXtoAhqABmJZA4BEMJLrLRAMDI2fARLhDGLZGaBu0Dc0AA2YNQBIdD0iwQBGEAz2GpCIDtTcgeI9NAENQAOxrAFAIhjJ9RYIBobGzwCJcAax7AxQN+gbGoAGzBoAJLoekWAAIwgGew1IRAdq7kDxHpqABqCBWNYAIBGM5HoLBAND42eARDiDWHYGqBv0DQ1AA2YNABJdj0gwgBEEg70GJKIDNXegeA9NQAPQQCxrAJAIRnK9BYKBofEzQCKcQSw7A9QN+oYGoAGzBgCJrkckGMAIgsFeAxLRgZo7ULyHJqABaCCWNQBIBCO53gLBwND4GSARziCWnQHqBn1DA9CAWQOARNcjEgxgBMFgrwGJ6EDNHSjeQxPQADQQyxoAJIKRXG+BYGBo/OzI0aOUn59P33//vd0tJB3xfezdDOcWy84NdYO+oQH7GoglSNy7d6/mw69dv05G3x7stesBCQZ44IFgAjF+duabs5rAjh496gjIs1sIQKL9DhROCDaEBqCBWNZArEDiTz/9pPlvDvT8fPsXQCLgz7oFjCAY7PW1a9c9Irty5Qr9/e9/t8tpFfp9QCKcWyw7N9QN+oYG7GsgFiDxt99+oz179mj++8iRI5YBkXnAOkngypi1QDAwNH52995vdPr0aU1ou3fvpuPHjxOLT9U/QKL9DhROCDaEBqCBWNaAypD4t7/9jS5evEgHDhzQ/Daff/n1DiAxZmlOUsWMIGjl9bFjxz0RRQ5dMzA69eBfT/v27aNr167Rn/70Jy+eBSTCucWyc0PdoG9owL4G/EHi7du3qaSkhAoKChzr+9gns3/WDx6PePXqD2EBIvOAJOxAsipZwAoYGq+5c/ceXbn6g+fXiS5Cp5/5VxQ3bv0PkGi/A4UTgg2hAWggljVghMS//vWvxI9r9Ue3Tvd5evnOnPmGbv18O2xABCSqRHISy2oEwHBf37l7l369c0cLYXMY24nHufPnaf/v4Xb+dXXnzh2NEwGJcG6x7NxQN+gbGrCvASMk6sOtOIJYVlZGN3780ZE+T/fDv965SzxMLFy/brxeInogaVUsYBRErL6+/cuvdOjwYS30zmMp+Q+QaL8DhROCDaEBaCCWNaBD4q1bt7RHyxydu/jdd7bASyU/qwrHoJwSLaCSYO2UlR+RcwPnX4E8oBeQCOcWy84NdYO+oQH7GtAhUd9Mori42DWAyP5WInogaVUsYAe8VPouj6XUx2j8/PPPgMQa9jtQOCHYEBqABmJZAwyJHFTg4AL7j2vXbwASVYEblFOMBVQCPbtl1Wd8/fjjj4BEQCLFsnND3QBv0IB9DTAk/vnPf/ZAYqQTQOz6ror6vhjKQCpKW6CixFcR+eqz0m7cuAFIBCQCEqEBaAAaCKoBMyT+HOEs4YrwdyLyVBpuUHgxFhAhJFXSACTa/2WN6ARsCA1AA27RACBRDGcgFYUtoArgiSgnIBHOzS3ODfWE1qEB+xoAJCoMNyi6GAuIgC9V0gAk2u804XhgQ2gAGnCLBgCJYjgDqShsAVUAT0Q5AYlwbm5xbqgntA4N2NcAIFFhuEHRxVhABHypkgYg0X6nCccDG0ID0IBbNABIFMMZSEVhC6gCeCLKCUiEc3OLc0M9oXVowL4GAIkKww2KLsYCIuBLlTQAifY7TTge2BAagAbcogFAohjOQCoKW0AVwBNRTkAinJtbnBvqCa1DA/Y1AEhUGG5QdDEWEAFfqqQBSLTfacLxwIbQADTgFg0AEsVwBlJR2AKqAJ6IcgIS4dzc4txQT2gdGrCvAUCiwnCDoouxgAj4UiUNQKL9ThOOBzaEBqABt2gAkCiGM5CKwhZQBfBElBOQCOfmFueGekLr0IB9DQASFYYbFF2MBUTAlyppABLtd5pwPLAhNAANuEUDgEQxnIFUFLaAKoAnopyARDg3tzg31BNahwbsawCQqDDcoOhiLCACvlRJA5Bov9OE44ENoQFowC0aACSK4QykorAFVAE8EeUEJMK5ucW5oZ7QOjRgXwOARIXhBkUXYwER8KVKGoBE+50mHA9sCA1AA27RACBRDGcgFYUtoArgiSgnIBHOzS3ODfWE1qEB+xoAJCoMNyi6GAuIgC9V0gAk2u804XhgQ2gAGnCLBgCJYjgDqShsAVUAT0Q5AYlwbm5xbqgntA4N2NcAIFFhuEHRxVhABHypkgYg0X6nCccDG0ID0IBbNABIFMMZSEVhC6gCeCLKCUiEc3OLc0M9oXVowL4GAIkKww2KLsYCIuBLlTQAifY7TTge2BAagAbcogFAohjOQCoKW0AVwBNRTkAinJtbnBvqCa1DA/Y1AEhUGG5QdDEWEAFfqqQBSLTfacLxwIbQADTgFg0AEsVwBlJR2AKqAJ6IcgIS4dzc4txQT2gdGrCvAUCiwnCDoouxgAj4UiUNQKL9ThOOBzaEBqABt2gAkCiGM5CKwhZQBfBElBOQCOfmFueGekLr0IB9DQASFYYbFF2MBUTAlyppABLtd5pwPLAhNAANuEUDgEQxnIFUFLaAKoAnopyARDg3tzg31BNahwbsawCQqDDcoOhiLCACvlRJA5Bov9OE44ENoQFowC0aACSK4QykorAFVAE8EeUEJMK5ucW5oZ7QOjRgXwOARIXhBkUXYwER8KVKGoBE+50mHA9sCA1AA27RACBRDGcgFYUtoArgiSgnIBHOzS3ODfWE1qEB+xoAJCoMNyi6GAuIgC9V0gAk2u804XhgQ2gAGnCLBgCJYjgDqShsAVUAT0Q5AYlwbm5xbqgntA4N2NcAIFFhuEHRxVhABHypkgYg0X6nCccDG0ID0IBbNABIFMMZSEVhC6gCeCLKCUiEc3OLc0M9oXVowL4GAIkKww2KLsYCIuBLlTQAifY7TTge2BAagAbcogFAohjOQCoKW0AVwBNRTkAinJtbnBvqCa1DA/Y1AEhUGG5QdDEWEAFfqqQBSLTfacLxwIbQADTgFg0AEsVwBlJR2AKqAJ6IcgIS4dzc4txQT2gdGrCvAUCiwnCDoouxgAj4UiUNQKL9ThOOBzaEBqABt2gAkCiGM5CKwhZQBfBElBOQCOfmFueGekLr0IB9DQASFYYbFF2MBUTAlyppABLtd5pwPLAhNAANuEUDgEQxnIFUFLaAKoAnopyARDg3tzg31BNahwbsawCQqDDcoOhiLCACvlRJA5Bov9OE44ENoQFowC0aACSK4QykorAFVAE8EeUEJMK5ucW5oZ7QOjRgXwOARIXhBkUXYwER8KVKGoBE+50mHA9sCA1AA27RACBRDGcgFYUtoArgiSgnIBHOzS3ODfWE1qEB+xoAJCoMNyi6GAuIgC9V0gAk2u804XhgQ2gAGnCLBgCJYjgDqShsAVUAT0Q5AYlwbm5xbqgntA4N2NcAIFFhuEHRxVhABHypkgYg0X6nCccDG0ID0IBbNABIFMMZSEVhC6gCeCLKCUiEc3OLc0M9oXVowL4GAIkKww2KLsYCIuBLlTQAifY7TTge2BAagAbcogFAohjOQCoKW0AVwBNRTkAinJtbnBvqCa1DA/Y1AEhUGG5QdDEWEAFfqqQBSLTfacLxwIbQADTgFg0AEsVwBlJR2AKqAJ6IcgIS4dzc4txQT2gdGrCvAUCiwnCDoouxgAj4UiUNQKL9ThOOBzaEBqABt2gAkCiGM5CKwhZQBfBElNMIiadOnaYWLR73HI8/3pLsHs2b30+P0+7QoSN16dJFOzp16kwtW7b6/9l7D2g5imv9d1687/9/7913fY2xyUFCIggUCEKBIAkRJBASSCAJIQmJKCGyCEIZAQJEtAEDxoFkcMAEE4zB8iUbsDEmmJyjycnZt9769dEeVdf0dPfMmXMmfb1Wr+6Zrtq166vdVV/vSsX0LO3x4yfEwtj/dh01anTxObL22mtMiYw99xwTCzNq1J4lYfbZZ59iGHQZOXK3hDD7BmHi+Ql12XPPvUpklOoyuiQM6Rsu5N/yaldw8sOAY6jvHnuM8mQk4zJmzN6xMMSxNOzqlxE6hWW02257xGTsvffYEhlhGNI1+XYNdSGOPbOrr8u++5bqgn2uxm28GzdunxIZpWVUai/YkC9njz3iZUQ6yLYwlAX/mZ52RUcLw739b1fs0J5zTbKXLF2Q5b8jSekk20tou3Fdkt4jv4xIJ8lefFzIU4jL7rvv4Xxckuxl992zbXfvvVfXHR3plNYdWfYCLj7+SbqE9pKFC/LQ38qYa2gvYBTiEpZjRx0UL6PRo+NlxG8/He79MkKXsIxIt7PniBEji+l+61sXu7/97W/u3nvvdStXrnQfffSxq0Vb1CwympjaSPVaIdAsxloLPX2S+Oyzz7kNN9y4eG633fZu+PBdOnUOGbJDUV6PHpu4o48+2q1YsSI6ly1b5gYM2Kb4nLQ32qhH8TnhFixYGHtOGCqsc845pxhu8uQDSsJMmLB/8TlyIFR+3tBl/vwFxTBLlix1vXptGguDLvxv+p522mmOeL4cSLA957r//hNjzwm7335xXXbddfeSMIsWLSrKIW9+Gtz37ds/pstxxx3vevbsFQs3ePDQogx0mTZtWuw5cg46aEYxzNlnn+2GDl1dPpbmcccdVwyDnK226heTQ5n5eT7qqKNjz5EzcOD2sTCka/LtevDBh8TChLaw8cY93bHHHlsMg73grbH4XDfbbIvic3SaO/fE2HPC0JD69jJx4qSSMFOmHBiTs9NOw2JhsI1TTz21GGbhwkVu0003j4UhrTPOOKMYZunSpSXPISA+dhADPz/cT5p0QCwM9h6GOeuss4phTj/99JLn2MvSpacVw1Cmob0g19clyXZnzpxZDEOaQ4fuWJLWKaecUgyDvBCX7bYb6LA1S2vWrNklMpBrz7lOmTK1JMzs2bNjYfr02bIkzAknnFAMQ1mEtov9+OkcddRRJTIgVL69JOES2u7AgYNicsBg3rzV9kJdg62G5ejrMn/+/JLnY8aMjekLYQ1lTJ06LRbGt13soLN1OPH9em/FinNFEmtFNiSnORGoBflqFhkiiR2EVSRx9ceBSOIK5ze0NMoiiSucSOLqd0QkUZ7E5mQ30romCDQLwauFniKJIomhZ0IkUSTRbEKexOTeAZFEkcSakA0JaU4EakG+mkVGPUki3be9e/d2//mf/1k8v/rVr8a6TuiC8Z9zP2jQ4Fh3EONwwjBjxoyJydlhhx1iYb72tTXdvHnzimEWL17s1lprrVgYdOF/6xJasmSJI56f1pAhQ4rPCTd27NjYc8LuvffesTA77LBjSZgFC1Z3fdPV5afBfY8ePWK60G3/9a9/PRauX79+sXQmTZoUe46cAw6YUgxDF2D//gNKwvhDAsjTRhttFAvTq1fvogyez5o1K/acdLbYIt4NTLphnugON2y59urVKxZmjTW+5ubMmVMMg7307LlJLMy6665bfI4MCG6YztChQ2P2Mm7cuJIw++23X0zOtttuGwvzjW+s5U4++eRiGMprnXXWiYUhXbp+LU94p0Ndhg0bVnxOuFGjRpWE2XfffWNhBg8eXBLG724GlzAd7AV7NV0o0zXXjNsLcu05V+w0Luer7sADV3fDL1++3A0YUGovJ554YkzO2muvHZOz+eZbxLqbDz300Nhz0kSurwvlEdflPx3x/DAbbLBBEOar7phjjimGoSw23njjWBjsx5eRZLsMwfC7mxm3GOoS2m6fPn1iYdZee52YvVDXrLvuerEwyPTTIUyYDl3fvr677LJLSZiJEyfGwvi227v3pupu/vLPNR0z2ZysRlrXFIFmIXi10LPeJBFi8JWvfKV4Ukn6lSIk0X/O/aBBg2KVK41qGGavvfaKyYEo+GG+9rWvlZDEb3zjG7Ew6BKSxDXWWCMWJokk+ulwn0RYwzAhSQyf09j5unQ0+mvGdOnbt28sz5DEUM4BB6we79ZBEvuXhGGcll8GG264YSwMZeY/p6EN09l8881jYUg3DBM2tKEtQNJLSWLPmByImq8LJDFMhzLyG2NIYhgmJInbbLNNLAy2EZJEyFAoJ04Sl5Q8TyKJoYyQJGLvYZiQJIbPsZeQJGLzfrgkkug/5z4kif37l9pLSBL52PLlbLbZZjGSeMghh8SeExa5fjlSHr4M7pNIYhgmJIl84PhhevbsGUsnyXbDjwrIsy+D+9B2+Sjyw2Abvr1AALFVPwz3vl0SJny+667xMc+QxDBMSBJ92+WDTmMSRRJrSpAkrFCoBflqFhkiiR3dzRAwkcQOsi6SuML5DS2NskjiCocnUSSx4x0RSVR3s7hSGyPQLASvFnqKJIokhp4JkUSRRLMJeRI7uuEND7uKJIoktjFFUtZrQb6aRYZIokiiNXx2FUkUSTRbEEkUSdQSOPHuajEkIaDu5lVrJXb1OokMuA/HoWlM4oponJI10nbVmMQVrmPiisYkYhMak7jCMXHF3g+7akxi/ANHYxLjBK8WzhtRJCEgkiiSGDU+mrjS4WXVxBWNSWRSicYkrp5gp+5mdTeLKrUxArX42mgWGepuVnezeWHsqu7muDcGXDRxRSTR3g+uIokiiW1MkZT1ZiF4tdAzjSRuuWVft/XW23bq7Nevf3EbqXBbPnU3r/ZMaAmcjnUS/YZYS+B0fMBoCZyO90RL4KxwlS6Bs+GGG3Wq/rb6ny0ybYF1bcsnjtT2CNSCfDWLjDSSuO6667u11163U+c666xXrFxEEjsafRb29skQ9yKJIolmE1oncYXTOokdxLiz6ySy+H9n63Dib7DBRsV6XCSx7SmSAGgWglcLPUUS1d1s5MSu6m5Wd7PZgmY3N/fsZpFETVwRo+sCBGpBvppFRqORxKRt+azBsmu44wrb8tkzu3bVjivhrhV5dlwp3ZavuTyJ4a4VeXZcKd2Wr9l2XNk2ZlOtMCZxzTXjO/Rk7bjCxK1akER232F3H9tRpV13XGELSauf7NoVO66wLZ/JF0kUSewCiiSRzULwaqFnvUniVlv1c3RJ20kXtzUmXBcsWFh8ZmF23nlYbDuriRMnlYTZd9/xMTnDh4+Ihdlggw0dW/5ZWmxhtvHGPWJh0MXf2mzp0qVu/fU3jIUZNmx4UQayxo+fEHuOzqEuI0bsUhJm4cKFRTk0HJZXu26xxZYxXY499tio+8eecx04cPuiDHShgfefcz9t2vRiGBru7bcfXBIG2YYL18022yIWZqut4tv/sXVemM7WW28Tk0G6YZgZM2bGwiDXD7PeehvE9uJdtmyZ69Nnq1iYTTaJbxF4wglzY8+RR9n7jTFdmX463E+evHq7QvI8ZMgOsTDYBtumGS6UF/sAh3LOOOOMYhjsJXy+2267F58ji32BwzD77x/fixd7D8P4S+CAS/h8iy36ONI3fSlTugz9cDvvnG677DV80EEHFWWQJvum+zK497efIz2GlfhhBgzYOkYSDz/8iNhzwiLXdOVKefgyuD/iiFmxMJtuulksDPoed9zxxTCUBftG+3L69Nmy+Jx0jjyy1HZ5P317SXqnZ86M2+4222wbSwcMTjlltb1Q12Crvi7c+3k+9dRTS57vuWd8e9FRo0aXhJkyZfX+2shj72lLpxZdzepujhNNMSQhoCVwVi2B09VjEmncBgzYpjjWhYHRG23UI1ZxQhJtwLRdR4wYGavEaVDsmV0nTNg/JmfkyN1iYajE589fUAyzZMlS16vXprEw6ML/VpEz0YZ4lgbXXXaJ761KA+8/536//eK67Lrr7iVhFi1aVEyHBiqU0bdv/5guNIY9e/aKhRs8eGhRBjozAzOUc9BBM4phIIk0KGEY9j+2PHOFyPthKDP/+VFHHR17TtiQsJKuL4P7gw8+JCYntAUGy/uEFXvp129ATA4E1tdl7twTY89JZ+TIXWP2wkdFqEvY0O6007BYGGyDRtzSWrhwkdt0081jYZAZksQwHRp5k8F1n332LZExaVKcsGLvoRyfJLJfdPgce1m69LRiWpRpaC/I9XVJsl2fDJHm0KE7lqR1yimnxOSEuGy33cAYSZw1a3aJDOT6ukyZMrUkzOzZs2NhIHxhvk844YRiGMoitF3sx0+HoRWhjF133S1mL0m4hLY7cOCgmBwwmDdvtb1Q12CrYVq+LhDJ8PmYMWNj+u6115iSMFOnTouF8W2XD61aEEWNSVxNFEWRhIBIokhiVBGLJHaM1wwbWpHEFU4kceMiWRFJXOFEEleTqFr0cDWyDFEkISCSuIok8hVq3RaVXtdaax3Hufba60RdtHTTbrTRxg6vk3094xnq339A8Tlh+GK151zxJPK/f4bdh5MmTY49JyxdRL6cXXYZGQsDAYx3Ny+NPC1+OugS724+LcqDH4auKT8dvIb+c+4nTNgvFgbPVhgm9CSGz+mK9XXBM9SjR8+YnLDLburUqbHnyJw+fXX3IZ5EvI9hWqEnkS5ePwxl5ucZb4z/nPttt90uFoZ0wzAzZx4cC4OXxw+DV+WYY1Z3fWMvffv2i4Why9HXZe7cubHnyAs9z3iG/HS4P+CAKTE5O+ywUywMXjjfM0R3M97FUE7oSQyf77HHqFg648aNK5ExceLkWBjsPZQTehLD5yxf5Xc3U6Z0mfvh2G7Nx45ueP859zNmrPY8k+aQIaX2EnY3s8uHL4euWH9MIt3G/nPukevrQnmEYWbNinc3b755n5Iwxx8f9ySGtssHj5/OnDmltht6npNwOfjguO3iLfX1xTb84QnUNb17bxYLQ3hfF8L4MrjHc+iHofs5DHPggVNjYXxPImErrbuTwsuTuJoEiyIJAZHEVSQx7Pqo5Peaa369OHjaBlGvscYazu8ySlonsVYTV8aMiVeuQ4cOjenDBBS/El+8eHG0YLLpyjVpxxVNXPlKtJWi33DRePu4cV+LiSvYC+MdLa2kbfmYDGDPuUKGQl2YXOSPMYOYhWEgAr6cbbbZJham2Sau9OjBUIklxTwdffTRrrsmrqy99tox7PJMXBkwIP7hQXmEZZS1TiLvayNvy9ddE1d8klhJnZ03rJbAEUlqewQa2dVda93SJq7krTSSwlVLEqno/caar+uwsQhnN7OuXBimq2Y3Q1z8tPLMbg4Jq9ZJ7FgDLty1ItzHW4tpazFt/13LIomEbWSSuM50Tw8fAAAgAElEQVQ668TqDvT1P174aPXzy3016ySKJK72+tW6vURe2xMkAVCQJ7GOnkSRxBVRwxE2FhtvvLHD22kEOskz1LdvfNbxpEmTShqdAw5YPSmCLsD+/fuXhNE6iVon0eyvFkvgbLbZZrHu5nZdAkcksWvJW1cQwiSZ4khCQCRRJDEiTkndzfIk5utupovRCC1XyKkRD7vKk7jCjRo1qgQX7biiHVfsHZEnsfGIZacoUhLrbNT/OpXRFo/cqGXWFXqpu1k7rliDZFd5EuVJNFuQJ7H5dlxRd3PXEstO0Z+uaMS7SmanMtrikbsK80aU290k0Z+hmDRxpdm7m9ldxRpYu2pMYmN5EseOHVtSRvWauLLHHnuU6JLHk7h8+fKip5b3yGzNrgxPCCeuhJOuGNvre3uTbLdeJHHChAkledKYxBVuxIgRJbhMnBhffF0kUSTR1YJstDjP61T2aoFvs8joTpIIAZw+ffWOHyz7sv7668cqvTwkcauttooN+KZLxhpHu2ZNXCEdn7CedNJJJbM/CeOPA6TRDbub/W5VBqHvuOOOJbrkIYm+LizabPmwa54xieutt57zycOwYcNK5OQZk8jSOUYeICDhrNg82/Ixu5ZFnk3O6NGjS3TJ6m4Gf38xZ8oinCHKOC9Lg2vS7GbGXfpLxiQ1tFkkkUk0Rx55ZDEtFm3++tdLZ/D7ecZerPzs2q/f6iVYGBMKUbNnds1DEv1lirBdi2vXPCSRcvSXptluu+1K5OQhiYwxtDJYsGCBAyvTg2ueMYmbbLKJO/PMM4tyksooD0n0dcFe1lprrZguPXv2LKaBzkkz87feeutMewltl9n8fp4h5L5HnvJihrwfhvusiSsDBw4s6osNJ5WRSGLXksKwLe8UuThx2UVumz2mlj33P2JeRPCmH7ukbBjiv/unD2JEcLvR04vhb7jlruKzt9973y0+93K32+Q5bodxh7jpxyxxD/32D8XnH33yqTvjm99zu+w/2w3Ze6Y79MTT3R9feCV63qmMtnjk0Cha+Xd3kkQqRSrpww47LGpwt99++5JKMw9JpBFiLBeNNqQzaUB4FklElw033NCx3hlyyumSRRKRA0llqZbJkyeXNEo8z0MSIXjowhJBNFLE8888JNHXZf/99y8htDzPQxJpsGmQjzjiiMSJLXlIImQaYmi4hF4sdAkb2nB2M2H4Dz3AJVyWhud5SCL2gveQcoYAh8QBOVkkkTCGC3L8/XF5ZmcWScS+zXZp3JOIQx6SuMEGGzgIEbgkTT7KQxLRGU8mZYTnLiR3PM9DEikjsxc+4AwLu+YhidgL7yy6UBbhxxiy8pBEPtrABJtJ0iUPSSRtyoBynjJlSslHErqEthuSRMKQ78MPPzzShyV+DA//mkUS0QUPr+GSZC8iiU1EEt9461333EuvRecDj/4+InY//vndxf9efu2tiKBBEo9bfH7xf4tj18+/+LJI9CAoz6+SCYH0SeKhJ57hIJ6PPP60e/7l192iFZe7nfY51L325jtR/GUXXunGzZzrHnviGffK629FhHLPace6jz/5TNO4U4huK5PCMG/dTRKpIGmMkhoBnuUhiVbJQjySGjae5yGJpksSgTFd8pBEdE7TJQ9JJD0wKadLXpKYpUsekmi6lCujPCTR8CM/6MTv8Awb2iSSmKVLHpKYR5c8JDFLF55nkURfl3K2m4ckZumSlySavZQrozwkMUuXPCTRx6WcLnlIYpYueUhiHl1C200iiVm68DyLJObRRSSxiUii3wC/+MobEUn81f2PxggfYSCJ88+6tOR/P37SvU8S33v/w0jOw797sigH8jdwz+nu1rvude9/+LEbtNcMd9d/Pbz6+aefuWHjD3c3/+K/RBJFEiO7qAdJpOIrd9JAWNcV16R1EsvF9f/PSxL9OOE9uuQhiWG88HdekhjG83/nJYl+nKT7vCQxKa79l5ckWvhy17ChLUcSy8Xn/7wkMU0Gz/KSxCw5eUhiloy8JDFNTl6SmCaDZ3lJYpqcvCQxTQbP8pLENDl5SWKaDJ6FtluOJGbJyUMSs2SIJIokFkmeTxKTSOQnn33uBo2ZEZHA+x/p8GRCJv2wR5yy3J12wZUiiSKJIokpZJWKWSQxmcyLJCbjgs2IJJZiI5JYiokRP5HE7iV4Pheq9j6FOmQ/8hPN8iRC1iBy4fnM8y/HSJ0vM4skfv9HP3c7jz88GtN44+0r3dCxh5TIWnD2t92R888RSUwpTh/zVr/vKk/i17/+jagrmC61Ss411vhaiSexkvgWNsl7Z8/yXuluDT2JTOLIG9/CMabI944yucWe5b3iAfF1YTFtxifljW/hGGNlujBpgbFS9izvtXfv3kUZyGLwf964frjQG9O796YVy2Esp+WHKxME/DTy3jOG05fDBIG8cf1wPklk72T/Wd778ePHx3QZPHhwxXKwl3B2MxNt8upg4fxJTEyKYrysPct7xcvmT5DBI5g3rh+Oscx+GW244UYVy2FcqS+jVra75ZZbVqwLeQtJop/fvPcsmu/nSbObu5Z4plCH7Ec+ocgiiRC40VOPKTnPufTqEmJnctNIIt3KQ8ce7O5c+WAU//qb73LDJxxRIgsvIhNYsnPTviEM73a4dhVJZEP4ak62+PMrvAULFlYlZ/z4+F68I0fuWrEcdFmyZGlRn6VLT3Mbb9yzYjkTJsR12XXX3SqW0bdvv1ijf9xxx7uePXtVLOeggw4q5oeGe8iQHSqWMWDA1kUZlBWzOKsp64MPXj0rFjn9+29dsZzNNosv2j137okVy0D3KVMOjOVpxx13rkrOGWecUZQDSawGl0mTJhdlgMuIEbtULAd7wV7tXYI89+ixSUVyIGEzZswsymB27dChldvLttsOjJFEiFk1uDAhxfLDdYsttqxYTt++/WMy5sypje0OHLh9xbqAgZ8fhtZUg4tP5JEnktgiJLGzYxJ9AvPDm34REcRbf3lfkRT+7A48iQcXf1t4PIlz5ElMZcCGVTtcu4okJu3nnOe/jTbqEas4IYl54oVhJkyIe4ZGjtytYjno4pNEloOhoQ3Tyvq9335xXXbddfeKZdC4+boYScxKO3x+0EEzivhCEmn0wzBZvwcM2KYog0bpqKOOrlgGaYQkEblZaYfPN9tsi5gukMQwTJ7fIUmstqENSWKetMMwkyat3joRfEeMGFlxnrCXkCTyURGmlfXbX4KogyTuWLGM7bYLSeLsimWgZ0gS+/TZsmI5/foNiNkLHzhZGCQ9D2134MBBVckJSWJSWln/TZ06LZanam03Kx17vmLFue5vf/ubu/fee93KlSvdRx99XMIzWrntTCUPWQ99YLI8iZWSRGY840lktrSfzpU/vDma0Xzfbx6P/f/gY3+Iwr8TLKfDjOjTL/quPIkphenj2+r3Iokbl63cRRKTsRFJTMaFRlQksRQbkcRSTFYTro4dnyCLeBLt/0quIold6zkMOUAKdch+5AvrLEmk23nWvLOKxO+lV9+MSN+9D68mg7ff80C0PuKjTzxTDGc6fPjxp5En8fZfPVB8xoxn1lMkXnZu2jeEYdgO13qSxLXWWtuF59prxxdHZnHeMAy/CUdFuu666yc+32effWJf18OGDU8Mt/76G0ZykBemw3+LFy8pyqH7cN111ysJt84660Yy1ltvg5JnyNxnn32LMmgMhg8fkRgOXehuStKFblV/jNkxxxzr1l+/NL111llvlS7JuPgNCp5EFusN881v6/ZK0gUPju8BYT25JBmmSxJmhPe9mshDbpIc0yXpWY8e8cWRjz/+hEQZa6/dUUbl7CUc1zV48JBEOWYvSbrwX0gSk8KZLuutl1xGoed5xx13StGlvL1gr1ZO2EtSeqvLqFQXyt5f/J4xiXSrJuXJyijJXvr16x/rbmbtwCQZpgvXpOeHH35EMT/ka5NNeieGo5scfZJkbL553PNc3nY77KWcLqHtMrY3Kb0NNuioX5Ke8Z+VD1cW0U8KZ/ZSznb9FQuQk2W7lRDQpLDyJHaCG/mkIoskpq2TCJn7xa8fjkjhd6+/xT3+1HPRuoqjDzzGsUA26Xzw0SdujylHuwuvvN6Rln++/e77UZhzL7vGjZl+nPvN409F6yiy2DfrJn762RciiSnl7Jdjq9/XiyRSidsMP/+adwkcBnVTga211jqJcvIugQOBQQ7yfD24zzu7mQkuNEw0kKEMfidNokkKhy7gkqRL3iVwmFhDfr7xjfhOE5ae36BAEpMWYiYsZIgTDCyuXfPObl5zza9HujCJyeL613DiSrklcCDDNLZ+XLvPuwQO6zWm4ZJ3CRwaauQk4YJO/sSVpB1XCNNhL9ju2ol5yrsETpa9+B8VTHRKWoMzy17yLIEDFpQRZxIueWc3r7nmN1bZS+lONuCWdwkc3iFs12zEv+ZdAsfsJa/tllsCB2Jerq5Dr3Diiq+r3Zsu5d7pcAmcpEXnkWW2i/125hRJTCEPWY98QpFFEuk6LncynhBZV/34Nsfi10xymXn8ae7JP75Y9AraYt1JMpaed0UUjiVxzr7kKjdiv1nRjit4Jl945fXoWVZe2vm5X46tfi+SKJJojZF/FUncJpFkWEObRIbATySx9KNCJDH5gxh7EUns3q7iWrTnneJGtVCgu2R0KqMtHrm7yqAR0hFJFEn0yaHdiySKJGIL8iTm84LLk9h8ZK/a9rdT9KfaROsRr1MZbfHI9SiPeqUpkiiSaMTQv4okiiSKJG7s1N1c2jWt7uZOEKB6NfTVpNuJbLZ81GrwbNY4IokiiT45tHuRRJFEkUSRxKSxiyKJLU+BlMEsBJqV8FWjdyOSxDzjdCqduDJkyJAyY8zSSeKiRYuKMxCZCMCkAyNSdq3HxBXWd2PSgelg16yJCJMnr16omXXv+vXrVyIDWWkkMWnXCkvfv2ZNXAkXAWZSgR/f7tMmrqy9dnyG6LHHHpsoI2vwfzhxhZ1FLH3/mjUmcdmyZUV7YYccP67dZ01cCWfmDxo0KFFOJRNXsJdqJq74O/QwuzlpolN3TVw55JD44uvrr79+Ii5pE1d69Iivw3rEEUckyjB7yetJ3HzzzRPlZE1cYfKYzXA++eSTE2WYLuUmroS7BWniStd2fWfxh7LPq2mg6x2nbGba/EG9y6U70280kkhDOmfOnGhANxUoS5NY4+pfs0gi5OfMM8+MKmAmE2y0UfLg8azZzewOQSUOcYXU+DrYfRZJ3H777R0NLHLQZdNNN02Uk9bor7XWWg4CZLowozFp8kQWSRw2bJiDHCIHAgzhs3z41zSSyPZuLNcBJpzjxo1LlJFFEnfYYYciLix1hFxfB7tPI4lgwG4i6IG9jB07NlFGVkO77bbbFnWB3K277rqJcrJIIrOIwRZdIOSWB/+aRRLZhs/sBdJZjjyn2Qvk2bcXSHA19jJixIji8jULFy5M1CWLJKILcc12me3v42H3WbObR44cWbTdefPmRdtSWlz/mkYSwR4yZmU0atSoRF3MXsqRRD467T0ib0kfbOiURRKPP/74oi7MavfzYfemSzmSyHtkumAvG2ywQaIcs90k72Al/8mTWCVB6s6GvVZpVZnVlo9WK3ybQU4jkkQI3a677uogNOxPbJWlf80iiTxnDcA99tjD9enTJ1EG8tJIIs/xPOy+++5u5513LqtLFkmkkscbhC7s8ZrUWJsuNHDo7ufV7lkGZ7fddotwoeG1//1rFklEV9Nlq622KqtLGkkkvQ033DAqo+HDh7vyuqQvgUM+IdA01ODi58O/TyOJhAMX7CWtjLIaWh+XcpMQSMsa2nJlCKGjnHfaaadEzx0yOuyl/BI4lCEkBLvDQ1UurTSSSDroYrbLRwb/hWeWvYAbuth7lKQL/1FGnEnPSdPKCHspr0v6EjjYi9luWhmlkUR04Z3GXiijcvWL2Us5kkgZQubBhdnbIa72O4sk8pGGDPZzR6bF86+mSzmSSBkOHTo0KutyH6DIM9uthBAmhRVJrJICNQMhCHWsMqstHy3EqZV/NyJJ9CvIcvc0GFRg5dZJLBcv/D+LJIbhk353NPrl10lMipP0X1ajnxQn/C+r0Q/Dl/udRRLLxfP/z/Ik+mHT7rNIYlpce5bV0Fq4rKs1tOXIUFZ8nmeRxDwyCNMo9pKHJObJU5YnMY8MwmSRxDxyzF7KkcQ8MgiTRRLzyDFdypHEPDIIY7abRPwq+U8ksUoKZESCbfOmzFnoho0/3A3aa4YbOXG2O+KU5e7h3z5ZXOPQwlZ7Zd1EW0sxSQZrJ9529/2Z6VWZ1ZaPloRpq/4nklh+TGLeylcksdRDBXYiicm4iCQm4yKSmIyLSGLXjjGstG2vmgCREPsoQ+B+8vN7HNvovfXun9wzz78c/X/Z1Tc69l+uVKGk8Fkk8b8e+q174+33MtOqOrMtHjEJ81b9TyRRJDGJDMuTmNxgmzdGnsTV+MiTuBqL8F2SJ7GxCF4t2vGq6Q+JHzhnoVt87uWZ5KyzikYk8c5fdzqdqjPb4hE7Wz7NFL+eJJGu0WpPJjnQRcK+ydXKIB6VOHLwelUrh3FNbMvHPq/VyjBd6Cqji6taOWz1Vgtc2AYPotgZXEwXhgRUmx/iWXdzZ2R0lNHGjn1wOyOH/bk77KUzttsx9q7ztst2hRvVpIzYUrJ6XL5enA3fCPZi3c3V52fNaFtLyhkb7oycDtuljKq3F7qZ0aVWtouszpzqbq6SAEEMZs87O+pqtv2Vy5EFPIzzz7o02nt5p30Pc1OPXuTuffjxiPThbaS7+Ee33u0OPfF0N3jMTLfXtOOiLfpMHiTxup/dGe3nPHTswW7kpCPdJT/4cZE0+t3Nb7/3vjt1+SVu+IQjHGlNP3aJe/CxP0Rhq8xqy0cznNvhGieJz3aq8uhMxaO4nau4hZ/wkw3IBrrDBkQSq6RAEAr2Ux6y90w35qDj3XmXXet+df+j7oOPPi6SNyMdM09Y5jhfef0t9+HHn7rv/+jnbrvR093vn34uCss9ezY/8OgT7r33P3TX3nhHRBxXPvhY9BySOG7m3Ej++x9+7K5Z9dz2dvZJ4pz557gj55/jXn/rXffxJ5+56276RUQ8X3rtTVdlVls+mpVTO1x9kvjMM38USezkV3Z3VNJKQ2RANiAbqJcNnHPOCve3v/3N3XvvvW7lypXuowSO08ptZ9UEyEB5/uXX3fKLf+D2PeTEiNjhCZx72oXRGEXCQOQgcY88/nSMPEIsz77kqiJJPPeya2LPIYXLLryySBIv/M4Pi8/xPg7cc7q79Zf3Rf8ZSXz2xVejtJ5/6bViWHSYNOvUyPNYdWZbPKKVZTtcfZL42WefubFjx7kePTYRWRRZlA3IBmQDsoGYDQwYsI27//4HRBKr4UBJhOKNt9511998lxt94DHRidfwzpUPRsTt3T99ECNus+ad5Y5eeG70H57EG29fGXtOV/bRC1dE/+FJ/Ontv4o95z8mzKCHkcRf3vub6J7f4Tn/7EvlSSxT0Ell2ar/+STxz3/+s3vggQfcLbfc4m666SadwkA2IBuQDcgGijZw1113uTfffFMksQx3SP07jUT87slnI5JGd7SRRLqR/ThHnLzcHbPovOg/SGJIAiGReCSJAyEMl8BJIol33/dIlO6b77znPv3si9iJ9zE1Q2380C+XVr8PSeJjjz3m7DzrrLPd4MFDGubcZ5/x7sEHHyrqZ3rqurrMhIWwkA3IBrrSBkQSqyRHaWTi8aeei8gaayU+/dzL0f1vHn+qSBIhbIxBtC5mSKLfnYzsfQ4+0Z1z6dUVkUS6mfEg3vvw74pp+XpWmdWWj+Zj1Or3aSRx0qTJ0YxdZu02wrnJJr2jcTBdWQFKthpY2YBsQDZQ3gZEEqukQMxYnjx7fkT0HnviGcfEkBdeed394tcPuwmHnRw9++zzLyKydthJZ7qDT1jmXn3jnWhiC2sosvA2BBJSAklkRjPjFj/57PPIqwjZwyPJ87yeRMIycWX/I+ZF6zXiTWQW9Zjpx0Wyqsxqy0drdWLo5y+NJE6cWJ4k9umzlTvooBnumGOOc8cee5ybNWu2GzFipGOJkLyEkrCjRu0ZxT3++BPc0Ucf46ZPP8htuWXfRBk9e/YSSfQ8vWrIyjdkwkbYyAa6xgbeeustdTdXw4JoeB/+3ZPRsjS7H3CUGzRmhtth3CFu/CEnuW9970fOH4PITGO6jnfa51C38/jD3czjT4tNZIEkfu+GW92hJ57RMVt6+nHuhlvuKnoDKyGJb7/7vpu3/OKOHWDGzIgm1LB8DvpWk892iOOTqFa/90niP//5T/f73/++2J2bRhKfffY5949//MP993//d3QSlzGNS5aclkjwkojj7Nmz3RdffOH+9a9/RTK4IvOpp55yffv2L5Ejktg1lb4aU+EqG5AN5LGB3/72t+7TTz8VSayGCNWSTEAS82yr19k0q8lnO8TpLK7NFN8nic4595e//MXxpfjGG2+4mTMPLi6SaztwcJ0790T3wQcfuKlTp7n+/QdEhG7IkKHuxz/+cUTwIHN++KT7jTba2L366mvu+utvcEOH7uC22qqf23rrbdyECfu7jz/+2B1yyKElMjbbbAv33HPPRbqh3+OPP+4uuOACd9ttt7lXXnml+D/PdAoD2YBsQDZQWxv48MMPow96LYFTBROqJTEQSayiAGoYpZZl2eiyQpIIUbSD7t+NN+5Zcl5zzTXuiSf+EBE7//n48fs5KpHNN+9TEscPx32/fgMiD+LBBx9aEvaBBx50F198acn/EMnPP//c1HM333xztFwPpHSnnYa5n/zkp8VnuhECQkAICIGuQUAksQrCUUsyIJJYRQHUMEoty7LRZVVDEr/3ve+7P/3pfXfddT903F922eXRecstt7q3334nF0nceuttI5J4zz33uB/84Cp3+eVXFOW8++67bvnyszJJIl7Pu+76pVu8eEk0thGyuO22A93s2Ue6a6+9zr344ktdU0NKqhAQAkKgjREQSayCcDQ6GUjSr4pstkWUJKxa9b9qSOJ+++0fdTf/9a9/dX//+99j59133+2YhRx6DpN+33vvfVHXcijjs88+d/vtN7FERuhJ9OtoxkY+88wz7rDDDo+lf9NNN/vBdC8EhIAQEAKdREAksQoq1IwkoopstkWUZizLanWuhiQmEb7u+K8cSXz//ffdj370Y3fyyae4HXfc2eFR3G677aPfjEnSIQSEgBAQArVDQCSxCipUbSNdz3hVZLMtotSzTLo77UpJIlv2zZlzlPve936QeB555JxonGAWaRw4cFDUvZwk55vfvNjRHR3KCEni22+/7WbMmOmY0AIxZFmevfce5+6++55olnS1VSIztfFMNsLRKHo0Aha+Djar3v+vHvfoYbP865F+WpqynTR0GuOZrejQKGWVVw+RxCqoUHc37rVIr4pstkWUWmDbLDIqJYlMSrnyyu+6++67v3gy49iOG2/8Way7NyR69psua18G94wx5GDyy2677ZFJEh966GE3dOiO7sQTT3Kky2xpKt1qjw8++NCde+557vDDZ7mzzz7bvf/+B9WKivLCeM0f/vD6qmS89NJL7lvfutjNm3dqpNNrr71WsRywwMvKbHUItT/pp1JhLHvxzjvvVBqtGJ70zzvvfMcuPpwXXnhR1fp89NFH7oUXXohmumMrlR7MzAdP//zTn/5UqRj34YcfuTPOONMdcshhbsWKc91f/vLXimUQgWWgXn/99ehkGalKDggqixuzIoAdNOCvvvpqhBFy+Z11gOMFF1zk7rjjjlhQ9PnOd650P/1p9qQw0iG9Tz75pCiDISnohz2/8cab0dCU4sOEG/Jz2223uwsuuDBaaoUg2C3v0cUXX+wuu+yKaImuhKixv+hBoEweffTR2P8PP/ywu+SSS6PlumIPEn6gy89//nN38cWXFD8a3333vUiu2fH5518QjcNOiF78C13ID8uL2cG7yRjuY4893jF5j21Qsw7sFlk+kfvss88izLFl7ssdDOnh/X355ZejejKsC7AfnvFe5XkXRBKroEKQgunHLnHzz7q0uJ5hSBR4Hu6h7P+2tRT9cNuOmhatpTjjuKXRWonszhLKrfZ3FdlsiyjV4tmM8SoliUbyuEIY8Sp++eWX0UQWunv953nu8UzusMOOjj1BqcgefPBBt8MOOyXKCT2J5SrEav6nkhw0aHDklezff+sofTaz9xu8vHKfeuppN2zYiEjG4MFD80YrhkMXPKPgiw69e2/m9thjdESei4Fy3NAo/OY3v3GPPPJI8VpNfmiUnnjiCfeHP/wh1kDlUKEYhElO2AMLpbMGJvl67bXXi8/z3kBmaOhp/FmzDQJS6cHYVeLbibzf/e53Dg9y3gPyM2bM2Mhett9+UFRGeLUrkUFaNOyUkenCfVpj7+sHaaBs0f/ZZ5+NHpH+k08+WZTJM8hJuY8nyhYcBw0aEpUPH0h2vPjii5HdUW5jxuxtf5dckUG5sM4e6UE0OPjoI1/oyDPyRlqQr6QDGRBu6gQmoNnEMz4oevXa1G2xxZYR3uhzzz2/ShIR5fOXv7w7si/CnXnmWcVwEJspUw50w4ePyPwApAxYhgtdsFfD74orrohw4j9O9Lz//geKafg34AIR7Nu3XxRn0aLFxcdMuCNPyGBozPLly4vPwhvqRcoXbDn5zQHRM3w77Oex4od2KAPcwZ9yoDwIb0QRO0KuyeI+a5iOSGIVVAiCkIckHrf4fPfcS68lnkYAkXP8kvPdi6+8Ee3a8ugTz7hLr/pptPj2kfPPifZgrgUhqSKbbRGlFtg2i4xqSeK4cftGu5/gBfnud78X7bZCpVzJSfcwDQCerqeffjraeYWu43IykkgiFfEzz/zR/fGPz0YVOZXXnXfeGXlE8H7lPW6//Y7IA8pM7bPPXhHpQANx88235BVRDHf44Ue47bcf7IYP38VVQxLJA54FPDCPcRsAACAASURBVKV4Zs45Z0WkG5V8JQeNMV43GjxrCJBX6UEZ07Dgaaj2MJL461//V+QBRA9rePPKJDyNJQ0eOpE/yr/SA3z5sOHE0wquWY1imAZEE3tcuvS0SJdTTpkX2QzrdeY9Omz3mWi9T8oIeyVvkKysfPEc0g55p3E3kkjDT354p/AmGrEo5x0CR4jOsGHDI0Lkk0R2QxoyZIfIltNIIniyZikndmIkkfIiXfIFqQZj9AHzpAPvHESQDyyfJL733p+iVQzI589+dlP0oUHvQRJG2DkfVXvuuVdUHj5JxJsNGT7yyKMybe+ii74ZpTNq1OhEkkjvCSflXY70QpKxEdZ+3XTTzZ1PEo84YpbjY5R6j49CI35JuPCxR94h/+BnYV944cXof2yHcuRD5/nnn08SEdUD1AWUAz0mRgTtnSKuyeAZdmXpJAmkzO+99163cuVK99FHH9fMcdUM7WbVJIjM5SGJaZ5GA6icHPaAHjxmpvvOdTfVpFCqzmyLR7RyaIdrpSQRD9c3v/kt949/dHhd6Oa4/fbbi+fChYsiL1g5omf/001M9zAHlenKlb8uyvjhD38YfV1bWLuGJJFKjTGIPIfQsfg3X+X2e//9J6VWdH7lx5I5xHvssd9GMqjU+X355Zf7wXLd//nPf4nSnTXryKpIop8IDeFFF30rwpSGopqDhoCG2hqGSmW89957UVwamWoPI4nXXHNtRCSq8WjSGOMV44R8UP7krdoDbGno8a5UKufll1+JvFXHHHNsRH5YdglywvJNeQ+8fhA9dhgifX5DtCCgefQBD+KAh5FEcKGcIcDIhTDyO+3jwAgqqxL4JBF8OcePn5DqSSS/EAoIiJHcJAwgO+hSjiRCPOjOPfvsc2Ik0WTR9f3ww7+JPHMLFiy0v0uub775VpRf3l+fJP7yl7+M3ukHHkj2/IWCIG/okuRJpL7CbrLeCUg75QT59Uki9R87Wt1yyy3uj3/8Y1kPIDphp8gw/Iy8Ub6cdkA4IXtZxyefrK4LzPMMKSS/lA82gxzKs9whklgFCeoOkkgai1Zc5sbOOEEksYoyyhulHcih5bFSkkgXyTnnnBMtZM1i1uGJZwUiSQWddo4cuZu74YYbSuIj7yc/+Ulil3NIEhk/RRrsHQ1xte6oSy+91F166bcjPfAQ5jmMJDKOkMZy2rTpkWzkVHvUgiRC0NgTm7OaMZI0rJAOGm+8PBCCSg8ICA0ijQiekyQPTpZMZp+bPfTsuUm0xFGlRJHGET1oyKwxq6a72XSFSCGnEu+fxaXRnjz5gMhW8AjxkcL+45VgQ1g8P+QJDxhlTRnR2OchiehSjiRCXviogEQgP40kIgdCEJJEy2sekmgyypFE8mpeTwhG2pFEEl9//Y1okhoeeuwIWWkHZJ1wPknko5GhLL/73ePRuMK0+PYsJInf//73i3ZMme+999hMbJHlk0TsmLj2PoD7+eefb0mWvYYkkQ907AXSzcl9Fkk0m7O6wCeJeICxFWxGJPHPZTlWXh5REi4vSTzilOXu/kd+X3I+8/zLRaXKeRJJ4ye33RONa/zgo0+K4a3Br/Rakgn9ESFQKY7NHL5SkmgVWz2uIUmkmxtCyqQXGh4mwwwcuH001oZB8ngAGHSe5zCSCLEjb9/+9rejaz1JIg03E1fwUFW7mwwkEW8VlT4egnJenHIY0YgQj4kHkClIFeSq0oOuRgj4008/E02EoGG8+uprKhJDGUN8GCtHviCv6IaO1RwQJ+JXSlZJi4YUe6Q7cv78BdFEq969N624S558UDZGfLnm9SSiRzmSSHkhC+JZb5II4YUMQ0yyPG/kKYkkMtSBblvGL/ORceWVV6YWeUgSKS/e6yVLlroVKzqGk4BNFhkPSeLHH38STaKhF+T73/+B69GjZzSRL1WZgCTyQYAuJ588L7JhyCvd61lHSBLpgYEs+7aDJzrtoOsem7ehI0YSIffIoksbsiiSWEeSOHTsIW701GNKznMuvbpI+tJI4h2/ejAiiW++814xfLUkRZwwGYFq8WzGeJ0liTvvPDzqRlmy5DR30kknRcvQVEog6dqdPXuOQwbnhAn7RZVoKCckiXgi+SLHo8gXMh7IK674TnT/yiuvRgPD884uNpJIGiy/Q4NG+vUiiXiqmDmL55YZ11mNWVrDQFwIJwSr3JilcvEZ20YjRONDQ8I9jUm5MW7l5Pj/U1aQK7poKzkgiRAe8x5CeNEHolXpgQ6QZ/JVDbY//emNke3dd999UdJMluCDpRoyT74gDpAA8kcXOPrlOcqRRMqa/EHo600SKS/KiTGSeY4kkgge2DDkF0J16KGHlR0LSBohSeQd4n3eccedHMtvcc+4xazyCkmirz/v6DbbbBd5kP3/k+59TyL2Svp85HIwBAPbQV7aEZJEwoIJ7wGTfh599LHisIMkOdgYBJHubbN5I4n8z8m4TQikSGIdSWJnxiRCQq698Q7Htn2fff6FSGIyx+v0v81I9qrVuRqSiOeErfTwBuEdoqLCU0Qlt2zZ6VEFSCWYdjK7lT2aGRzPbEPrbuNLl4bAxhb6MkKS+Ic/POl22WVXx2SI8IDQQGBtEH34PPx9552/iPJDengbyB8E9NZbbw2D5v5dbXczFTckhEk84PPss89FpIz/KzlojGxQO1cagbx4WDp0ceNd4DSSCPmolCTi7b3++huiSUYPPfRQNHP7tNOWWTK5rtgX4++YPY4XBY8iZKhSXEgMPCAulebDFLWJTjfc8KPIE8nHBPaSd3iDyTHyQ37wbKITDXXeg7z7YxJt4gpyeCcpv9/85pHMfPIO17q7mbyxfSd2h47YI4Q4iwCHJBHvM2MR8QYyFpDu/VmzZqeSqpAkMtyB8cucNpObyTi33XZbKtQhSWQN1muvvTaaKMcMZcqcCTdZh08SCctKCgcffIjjY3b69IOibvAsGSFJhOiBJ7YDAQfncvbM2FLeX94XvKHEIz4nHnnshfiff/5F9K7zIZhGWomviSsVUg0a6TQPYJ7n1tCnyTlm0Xlu6tGLOk0QSavCLLZNcCuHdrhWShJZwoTuMPOc4IF75JFHo1mQeFWoRGlsfHKXdH/CCSdEkyn22mtMRPTo8mPQ/J57jnF///s/ooHyYbyQJNLYQC6TSALjflhCI6tBsooZ0mBrM+JpoFJn2RnG4VV7VEsS77jjTrfZZh0TZ7beehu30047uxEjdom+7ivRhXLCI+qfebr7wjSsMWEMFI1JNZ47Ph5oUFkOBPK76667V7zuImVpjSENHo2aeRVDnbN+403Bi5jXPkJ5eG/4COnXb4Dbffc9InvBfmxZkTB8ud80/HhtjIDj6QXvvIeRRLyPHPxmTCPlhEzKHnKVJTONJE6aNDlz4gppI4M0Ie8cvDukb7qAN2fWO+WTRMpn6tRpbqut+ka9FLb6AQQt7QhJInIgU5ysFkDdwjqXWeV/wQUXxCau4N3vsOP+0TtKXWFdt2n6UJ8sW3ZGMch5510Q1ZPm1USnrCMkidR94Gm2gw0klbN5kykHysPKwT5GII08433CFrmSVtohklgFHYJQpJG7PM+NlJST88CjT7jtRk1zP/n5PSKJVZRR3ihWDu1wrZQk0hVLpUg3LpUlXkUqdSrdn//8tmidQ7pIQ4IX/sZbRyW3yy4joy97SCfLbeBhpOIePXrPEhkhSUyrxKp5RiNHt9RBB81wLJJLg9KZA+8kS3ZUelDZswc16+7ZyU42la4rCGGgQabCZ/xVNeTO1x0ChHcqq2H149g9Xgm8GODLYuzvvJN/FrDJsCv5gUxBBJIaRQuXdsWzUs1YRF8mXXzMWJ08eUo0NKCasZpgincX7znyKsWW8ODhk1PKHfKMhwjvJL/zHFdccaVjBnB4UEfwbmcd6IJ92NJT2Bu2jB7+mYUTS1oxEc3CsZc7vQXXXHNNtP0mQyDyHCxG/8QTfygJygfCNddcV/J/0h+Mw0UXKxeukCgWx2aRcctrUlz/P3pc+GizA/tjUW9mx9Nrkea1szjUR+BrB/hgO5DyNNtBNuH8MuDet3/sBzmE8/+3tMKrSGJeNuGFMxKYtA7iS6+9GZE6yF/Sc1s38f0PO9YbIpytk8haib978ll32dU3OsYznrjsopoQRPT11Neth0A7kEPLY6UkkbEz7EJApcQOGowlZEFtZjXjjbvqqqtLyF1IEPlNNzGV3q9+tdKdcMJch9eN2aHstsAXLoQxjNfVJNEqQmsQ7LeuQqAcAtiKLUlSLoz+FwKthoBIokcY8t4aSfR3ULH7cTPnFkmi/Zd0/dkdKxPD7TDuEHfAkQvcdTf9wtmC29bId+aaN2/tFq4zmDZb3EpJIsSNMUEsMs1XLR4qPBl0A/K1z+LRIbkr95ulaxirhAxOvB9PPvlUNOsPL2UYr7tIYqtV6MqPEBACQqCWCIgkVsGKmo0coG8V2WyLKM1YltXqXA1JhLyx3Md22w10gwYNcmxLts02264aR9ejhNyFZM9+s3wEY42QwYk8xqzxv4Xxr0kkkS5ryGXSmXf8HV2WSfHtv7xdmnTtWpzwip55jo6uwrfKyqFLPM+BpzfUwX6XG9weyqUhoGvP4oVXnuc5GL8XxrXf6JnnIN8WJ7ziec7rzaOLOoxvv/PaC913Fifpmic/hEkro7y6ZNlu3q7mNF0ovzwHZdRZe8Ezm2YveXGhlyKpbPivVvaSp1sW3NJ0Aa+8PRdpuOTVJct289Z1IolVUKFqG+l6xqsim20RpZ5l0t1pV0sSffLWXfchSWRMT1raTKBhPBGVdLmDcTgs7J0mhwkKzDAud9A4MruVrvg0OYyRSquEGb/FhI40GYzVtIkBSfqQV7YWtB1jkmTxDH3TdCEN280mSQb/7bPP+OKuOUm60CCRjk02SJKz+eZbREuBpBHOl1562Y0e3bHNWpIM/mMfZbYpK3fQELMFZJKH2mSyHiVLKKURccaVMYnI4iRdGUqRVkbIZ0xbmi48Q5c0kscEFSY1Jelg/4FL2tIzjBu0vZEtTnjFXr773e+mkhlw2X33Uam6sI6pTZZIKqe//vVv0ftKOYQ62G+28mTJmDRcGK+6xx5Zukx0TMQqd/BuMJkk7Z3Grhlek2a79IxQf5j+SVeW4kkrI+xl+fKzUmVQ12WNbWTGsi1GnqQH/7HdKkQ66xBJrIIKdXfjXov0qshmW0SpBbbNIqMakkhFffDBByee2267XWpl5ldOVI5JcvbZZ9/EBtQnieecc260yDSzBk866RR38snxk71dWeqCSTSQs6QD7wnL76DTlClTS2Qgk5mVPKeiZ4/SpOPb374s0gVPKOmGuvAb3dGFfaGTDryQI0fu6jbZpFc0cSZJBhNq0GXw4CFld3lgz1kaNnaWSJLBfywvhC7M1Ewiimw5t+OOO0eLFs+ZMydRDuNQ0YVGBxIXHjTiyKfxYnxpOV3YnowwF154YSIJYSA9a9GRFvvdJsk55JBDozxD9tnWLTwgiIsXL43yzGzkJBlz52Ivg6NyhJwlHTSeQ4d2jJVl2ZIkOVOmHBjpCtm3iRehLCbvgD/r/Z100sklcrAh7MVIaxif33jUsEmwY3JTOV0gmxDJJFyQc+6550bY7bTTsEQZyMW7jy7MyE3yekHOrRyxiyRdWNeQMuSdTNr9hQ8KJrNhu+QrSQb/MRsY7PhATNIF4sxwGNI6+uhjEuWw9Ay4sHpBEi7YLuUCtth3ki6UEbqAC+Qs6WB1BZu9jI0myWHSE7qyqgMYJB2LFi2JdEFWkgzGdGMvkHm2NE068ELyHoLvjBkHJ8phUW9wwXazPJMiiVVQoWYhBb6eVWSzLaL4GLX6faUkkQaHr+NyB5X0zjsPiyo+Kr+kk8qXiS7lDr6czzxzeVSh+fGpCJnpaB4hKvk0bwCeORZtpuJjko3vUXzuuecjD+Lmm/eJnpWroPmf9CCjNKT+DEUqSl8XZk2WO9ihgYaA/Jx7bnwLLjAbNmx41ODgvSjnyerwhl0YeebI+/PPv1BMDo8Q3ika0OHDd4mWQSk+DG4gdSzbQqMCqfS9MqxJh9eOXS3IWzlc0IX0yA/eKt9zRtcvcZGPnjSW5Q7SY8tBlvzB6+h7Zcgf60SSp3JEH7ngBW7YFd4sZsfagZ4rVnQQIZZbSvNk4WnBC4gc0vPLgbUZIS/YQZpHGP3x+uBl4gMEG7SDZ7YSANu5pS2dQjyW1MF2IUQ+mUdPxv6iCzsKletqp1xJj3LAA80MajsgsDyDNOB18/W0MHaFqPMBgxw+iHxy9vvfPxGVH5hdcsklZe0FWeYN23ff8bGZ+tguZQThoozStklktjLvIXlnMWo/77x/u+22e1R+zDwud1APnH56x5JMeMPJnx3Y+xlnLI9k4FVj3dZyB0vP8DFlZN63F3BBT5YMQxcfM18e+7wvXrwksnF0998j7AXizDu2774THHtSlzvMdrEX0vPfafTkQwtdLr/8itgzXx5YsnYp5Tx27LhEMm/h0U3rJLYFHVImkxBodWLo568SkohHIa1hswqE5RTSiOLcuSeWrahMBo3it771raiRNKJIJYfXkAaJRjitMTE5jPkZNmxEFAdSw2Ff1cg9++yzc+kC6SH8kCFDi1vbQRbQha3CIIFZB11KEF0aZjxbHMwIhyDyHw2+TwaS5FH5s3c2unQsR/RKFIwle5ABycmzLAdeMby+HbosidKFPJI/Ghr2qM2jC6QBXfBOQkLQjzURkUsDmmcsJl4xGlTSxcvGAWkBK2SHRDYJF3RFF9KlvCljGuZTTpkX/ccWjf7yIUky+A9csF3K9bLLLouCUbZ4/dAFG8rCheeQVsKjiy1Pw6LL6Ie95OnSg7yAgREwlMFe8AgZGShHPix/kB48UeiCV4z3gcN0gSBmeY0Iz3tvuhCXdCE0eAbRjyWxsnDBNvj4QxfshfeB/+bPXxjlJ48HC10YVwpJBktbnobF3vngQzZrt+bRhbIER94ZxumiC5PpkAtWpJN1YFN4UfmQYZkbDpaXwWONLlnDOgiPrrYJAUQRAsaBN7PDXnZyb7+dvm4h4SHJpIsuV199dSSDPDBmHF3YRjDLXiCK8+bNi8LzUVRuzLBIYhJz0H9tg4BPolr9Pi9JZDsrdtqwg69/Gjoac04qS797jQV8IQlUTnZS4fkeRCpHSATkgoqVRofGncqagy9+a8yQQYXOlYbNJ4ikm6YLlSfeMeJDMumWZCwc3kXzlJEmaZsuXK3hQBfCQRRpiCA0VODogocG3e1AF7DwcWFNNDtY69A8isigWxhPBOTIPBFJuqCbNXxU9B2eus0ibxP5oKGmsQN3OygjXxcw8ssIEoK3Cs8BnhxwASO6fs1DY2VE2VgZUWbW2PAcgtqBxV5RPpBHY4e31o4kXNDPDvSGnIEF+cHTaSTAwpBWWEboYrhgL+ZRBAvr7sY7BQ52ZOmCnUNYSH/hwkWRp8y8dpYWZYR9+PaCLma7NKLogocUokj3JBjhofFtF9tAN7DFZsIyAkOwIC5rkkKusEHfg2i6UEbYOjr5uPDcPIp4ZumyJG/ck6Yd6EJXsNkuuvhlhI6sa8oHGmUOiYCQQIR8e6GMzF7QBaJh9sKVciE/jHll2AgyGHpCWDuSdPF7AlgVgfoFLPg4QC9k+h5Es5dQFytD8nb66WdENk/9cOqpC6L3aOzYfWIe5yxd2PYQ2yUfkD084336bOm+852OLULJk19G4Ajp9ssIXagbkYHXli5k8jN+/H6xDwo+ONLKiF2oiM97vGjRoujjxryZZpvUZawmYbiEunR4FE+P3kU83knjJUUS24YOKaNJCLQ6MfTzl4ck4kHwG1kqN+tqWLlypbPz17/+dezrm4rEH1h/zDHHFRsLKiwaY4vrX2kAjLzRqOBJMoIIAfEbWcbysdOLH5979KOxsgMPCkSXipfTH49HGngiQhn89onxv/7V0XVpMvA2+N3dNIZJuvCfPyuTOOQDOeQLb4gdabjQpWQVPTpDoE0XiAheJjsgMEn5CXGhsTAvGbr4ExQoA7qqkuSwM4NfRhAF0wVPme+dIo0ke8H20NMOGmP/w4Jyt4O02CkiSRdwMV0ID4Eye8GD6HcxU0ZJuvAfdm0HXXt4iCxPkHgjF1xJM0kXn6RTRtbFihwIHsTLjnLv0f333x/Dj8bc7AU5kCI70IX3pZwu6MCB3eCxs/xA4j/55FMTE5EG3t9QTpLtQjqQA9G87rrVY+AgF+XsJbRdyJnpAqnxP14oL6uXfH3CMmLHFMaRmhw8iHZgD5A3P77d80777xHDP0wG4/58Oyhnu+jiv9PUj/7yX/6YSdIqZ7sMNbEy4kp3r+kSejPL6YK9+L0HDLdg3LjJYfF6O0gjSRfKng8M0wX8jjvu+EgGerALln+IJCYxB/3XNgj4JKrV760ypgIKDwZ+86XOgtd2UBlRKVmFG17DCovxi5MmHRB5mKwComFjbF8Y1/9NY2uNsnmImCzgj2+jkjb9/bh2HzZwfMEzaB0SYaSCCpy0LE7SFQJpjQqVJYQIOf6M53Jk1eTRqPhdNxBFBrPjETQPIvnN0oVGxXQBT3SZNm16bJwoZPGBBx4omydwQV878FYddNDMqHufyt+OrDKiUbEDPCG706YdFMMFsphmL+hp3bHIAmu2gWOGth3gQr4Ny/AaNnDYC97IQw89PDb2DfzT7AVdfHLL+Lfp02dE47jMFslnuY8b08u3XfCkjJm44X/clCOrJgN78csIr+/MmYdEBNG8dthBli6UoelOeIg3Ze17EHmP0sqIZz4ukBAmUV1xxRXFrlFsMct2/TTRhTJCjj8mEF2wT8MhvD744IOOjwk7Hn/8927ixMnR+ET7D13KffQhD3thBrQdEFTI/OGHH+HeeGM1iecjM81e0MW33cce+230Ll511VUxslXug8J04T2yMsKjiC7sTW1DA9CTj6k0XcJ6F48iE5oYNmJ1HdckguhjTB1pumBnEydOioii/8GNPiKJbUOHlNEkBFqdGPr5s4qnHEnEE0OFY4ffKP3iF79wt956q7vtttvc7bffXqzY2bbKCKHF869U8pYuFdTNN9/sjj76aLfbbru5X/3qV0U5vpfJj2/3fqPUt29fxz6r6HHnnXcWZeBNMFJl8fxrSDTJz9133x3lyypPGpWwkvRlUKniWbPw4IIe4HLXXXcV/we7NFxIw2SAA7iwTRpX+x/cfI+hrwf3yAd/C3/HHXdEepAv9LL/0SXtgBRYWHT56U9/GsXnav+Di99gJ8nzGyXKhd160AW9TA5llHbQEJOWhf/Zz34W4crVtxfKMu3wG2uwQJcke7FGMklWSDRvueWWqIzIk+nH1f8gCOVgj7WwF95ZSxMcTBeu9j9k0ycyoS7k9aGHHiqGBw9OsPFtF5Kedvi2e88997gbb7yxWEamC7ZrH0TlZLF1o4W3dyi0Xcox7cB2fXvxdfHtJe09Qn5ou7zP4OLXL4RJe6fxSvq6UDbgGtqL/0EQ5g178T20pG/YUD8YXhDjNF3w0FpY3158XbAXHxdbxSCs/0QSk5iD/msbBHwS1er3RtbykES+RKlEqGionNgUnnFEnNz7FXAaecCLZpUVZIGvV2Yb7rfffrEKmP/TDr7kkUOl27t3b3fTTTdFuuARgujxjHu/KyuUx3gb04UGAM8L+eHr3m9s0ybs4LkyXUgXTwhdhMjhfyNn3KcREDwqpguNADogAxz4bc98j1SYH/LqN0qkiQxOyKM1KpRjGnkmbUuPOHiBkIEHxmTw3PfIhLpACEwXcCF90wViApmwNPzxZqEcsLRwlLXpgo6GbZYuNJ7moSLOI488UtSF/812sRd/HF6oC3ZgukAaKBvyhN34jW1aGZFX0kEO+aGMyCMn5WL4gpF5gUI9+A32pgv24evi24s/VCSUA4G0OoDyIE2/jNCPNNA37fA9veiPbsihrEwGctJwwXYtP9iLX0ZgZPaCvuZNTdLJ94D7umAvvi7gXe7g3TBcsBc+ZAwXsyN0xYOXZrv+O429mO2G9uIPWwl14j0yTy8E0d4j9Of9srqO/9PsBfswfH17oezQzZ75wzNEEv9csg1y2xAhZbQ8Aq1ODP38WUWYhyRSGVpFQuVrhIrKk3FRVlkRJu3L2CorGmYqOeJDEidOnBhr9LO+jE13yF2fPn0ijxuyqPSswaZC97+MwwrYb2hpDKwh4Op7DNC53EHjZpU46fq4IMfIZhoxg8T4jVuoC5gakaGxK3f4HkDKCE+H5Yk8+I1kmlfHH+dGuiaDq30ooFOaRxLczV5o4CkXk4N8yw9h0srIvNfIAGeTwRWcLA3spdxBo2/haCB9Gehins0se/HJM1j6cnxilkaesRfDEG8ojb3J4d7shbyWa/SxF5+YhfZC2Vt+/e7cEB/eUyPyYACGpgt58N+BtA8c39MV2ou9p+iDjZc70MV0RgY9BaYL3kPfXsCw3GFeWuzF/0hClm//abrwoWC6gK1fRhBGq+uwlzRPrfV2oIvVdZYnq6NIJ62M0MUwtA9hk4ENUP8hAyLvDxcJ8TFdCIt9mAyu/nvkE3mRRJHE8kypjZ/4JKrV763yyUMSaWitcaNBIa5VNP4XLZVQWiXO7DzCcP7kJz+JPGbmSaTRtGd8dacdNACEpZLs1atXkSRSAVpjQMWZpovv1bz22muLRIYGhLFFpotfcYY6QZ5NFxpVv1GhYbPGgDBpDa3vdQAXI1UQkxtuuKGoS9JsQ9OJvFqjT9qcVkY0aEZkuM/rSYS0mGcIHf3u77TGjQbLdAEXn+BhOz6RSfPGoD/lQF7oOjRdKCPfXtJ0AR+fyGPHhgvlhWzSwF7yehKxF8oGOTTA1113Xa4yIq+kQ3p4cCAQvi5WRpV4En/0ox8VP07AhUWVzXbzehJDezH9DBezsaSrT1ixD/OYcfXLKM12fWKGvfgEDx3sncZ20jyJRuTJD6QKuwBfkb+yvwAAIABJREFUcPFtl//KHX5dR/3i6+ITKmwq7WMLcmnlgH3woUa6kHH/nc7rSUR/s11ko5sR+SxPImXh6+Lbrm8v8iSWEkOfB7QxNVLWDQHfIFr9vhKSSIVqX6OQRHZruOaaa9z111/vzj///GKjz5e2Pzbmyy//HPOIQGSMbF555ZXum9/8pjvssMPc0KFDi8QMcuHPMoRchY23NUzoss4667jTTjst0mXFihXFyhAPh0+GaKB9oob3wjD43ve+Fy0IzLi7Sy+91KEblSq6+GPMmOXskxrkmeeNBp91DKl0IRGsw4h+yAk9o8jwcSK/Von/4Ac/iHSALF588cVFXcDN91yQNx8X5Nm4LhrJ8847L2qMKCdwMQJCOfoHZeLjxAQlI3iQZdasRJeLLrooVkb+sALih4TcxgGSLrqACdgwftQafbyd/oFMXxd+WxmxrIjpAi7IszLyvddJ9gL+hIWYLV++vGi72LHhjhfKL5PQXvwxrKyjyALSVkZgbLr44yPR5S9/Wb3nNnmz8W4QDsrFtxfDhTIKdfF/+2MSsZdvf/vbkS7ggy2jS+jpwjMZ2i7kwvKPLhBOyhw7NtuFUPgH5ey/R/7YOyZL8P6E9oLt+oQKXUJ7MY+k2Qt1C7iyLJPhQjn6B++Dby9mu9g/k2uwE3ShnkGelZHvvSY+C1v7h9kuH3nYCyTPbNfwIoxfJryLPi6+vWArhgtlZB8VvGeh7fo4+faC7Vr9Ai7UL9Q56EN96OvilzP5Ys1E0/vyyy93nIaLfRCH9iJPYilhNJ6gaxsj0OrE0M+fNb7lPImsD4dHww4qVr6eqZhYLuXMM890Z5xxRkRiqJTxkPiVL1+vEybsH9sxg0rUupz5EqZhGjdunNt+++2LY2NolKzCozGBVBx44DT3+uur17ujaxX9SXfDDTd0s2fPjvTxG0jC2MEXPDIuuuhbRdnogoeBypMGG8JAfrjaFzqNtTVC6MTsaLbr82da0zBRwSKHBhtcONEF/dDTbwjeeeedaCYk6xNalyK6mBeERtLXxcYMoavfCLEcCttp+Y04pMo8VaRPfqyMKDf09HFhnN0BB0yJCKB5aMinlRGN5FlnnRXJoFEyzyhlawd5YOYsM9l9j55vLzTYpovhgofGJ5o0dOx04c9uRhcrI7yaNJLIwW7AhUYW76LZCx5M1ihkNjw422ENtpEHKyPKi3ILbZc0mWnNLhV2YAf2oWS2iy4QYPMwURZWRoSnjJkl7e+YgS3Yh5K9R+hjulBG2JQdeOCwXQiPyeZquoCDby/2MUAZWnhksb7hAQccWGK75mXlw8jKCLIHVjzz32nKl+3kIKVmu34ZYR/YCXIoK7NdysgOcGF2M3L88b7YpdUvvr2AC7pgLz6xhKSNG7dPyexm+4DEk2i2Cz6QXuwFL5zZC2SKJXmYDezvsMKHIWF5ZyBUlA95MkJFvejrwi4r++8/0V199TWWzQgfGy7h2y4f1UZ6fdvl/TvttNOj1RP8iXuQcKvrDBf0YdFsbBfM/I/HP/7x2aicWf7G8gnmRnwpE3uP0MVsF13MXrjyPrOUjiaurCaLbUyNlHVDwCdRrX6fRhJpJFjcmLXr6A5ZteRa5FWjgqQCpaGkUeCeRtYnm1QsLNhr63X5y71QYVGR01DS7Thr1iw3evTo6DcNnzU+hGMvXRaLRs6AAdvEtqOj4WfSDN3NVHboQ6WJfr4nku5itqszXVjE1ydEEAJ0YawRDQsVOL99UoYuthUdclgI2ydE6EK6pA8mvi48s4MGinwgg/X8IJ3//Oe/osekYbqgA1116IQu4MVzDogQ8Sw/LDDudxOBPQ0q5UIXFbpwH+JC17+tZclCvjQqhgtXGjgrI+SYLjQ2VkboQsPFvtPow6Lcvi40dqYLjZPZC//5jQ+eDuIaLuiCbA7S8nWhjEwXcDFdWKLo4osvLdoLu5OwgLkd2IRfRkZg+M/3FvNBwdqThu+FF36zmAZlYLZrZYQNg5NP1gln2/Ahh/fIH7bg60L5mC7Ys/9BQYNv+xEjB8JiDTlp8L7wHqOLjwu6+Pbir03Igu7+Lh68t/ZhQTlDMrEXdDHbhWxgu7aDB3UDaxOuxj5uL74ueP9MF7xk1AW2liW6+IQIOzBdsBVwMdv1y4hudNvZifoBL6Fvu3hrzXZ9XXi/TGfsy3YrAlsWwn7rrbfNXCK9sFPeaUie/x4ZLgRmC0kW2Td7YfcVS4N8k38rI95ps5fwQ8sWGkcOi5XzftpBGZkuVkbohSfY/6Agrf79O3Z8QQ7bF9qBLrxHpov/TqOLEUo836eeOj8qI+pwKzuTA25gS/rsad/q7aSfP+MJurYxAr5BtPp9GkmkkmMrp459aHeJrX9HRU9ljheAk3u/e4OKmEaWBXchVqzcT0WOV8UOGjo8B1SEy5Ytc5MnT44aR2sAqfBpZEmfBpZGDhkQCb/yJN2tttoqqsRp3ENdWAeQxYOpMBctWhw1BMg888yzio2t6QIZpiFEPrpZ5chzdGHdSMghcpCHLv56iehCZY4eSbjQsNkOGuzLSr7QhbxZA0dakAR0QBd0QhfDBfzAlEaaChwPCThDgv3lirLKCP3YWYSFms8//8Jo9xXwJZ++LqSNDuQp1AV8INykP2bM3pE3Eb3AxSfQ4IJXz7cXv0uNhg0sIKp47tiBA138BbX9MkIXKyPDBXlLlpwW4UL6Zi/sivPOO6u3WEOXNNtFF7CExJx++pmRHVPuYGQH+aaMQnsxXXh30IWyZdvFefPmR/bCXuKvvPKqiYneGXAxe8F2fFwof3aPwdaWLl0WLXyOdx/MzTazdKHhBwvKhd1nOraA2yQqb9+7Z2VUThfCduyzvUVkf2DUYTsXFAkR+Tdc/DIy8mG6gC27iUDQKGc+cghvR6gL5eXjwvqILHYOvhCyXXfdLbJBvJt2JOkCmbIyIo0FCxZG6bP/OLigC/c+aaULmY8es92wjJiFzUL9vAN4RyGulBFDI+ygjCCVvr34ukC6Tj55XtF22RUHjKg3fW84uvjvUagLtgu5xF7IDx+jLKzNFqJWBqG9UCf5uoAPuGAv7D7je8AtPyKJbUyQlPVCodWJoZ+/NJJIhUCFQkVOhYFXhobfKhurMMIri8DuvvuoqJJjNwMOGgD70qYrkAraPxjfdeihhxb/opGlyxHSQAOA14PKy0gj6zdCRO3Yeuuto2Uq7Ldd6RJmyy70pwLnYNcL28Zr+fKzioTI4oRXMGDHDSreDk9Dx/63EBgaKciNTxTD+Pabrj92NyEOe9iSHzwjYEUDgzzzPlic8EpDST7QhXSty5uFrGngIH1pExWQR/m98MKL0T7N4ELXIOkaVsgBe79RDvXgN2WINxPd+SDANpADpsiARKRNVDCZNJzgahjwP1ixgwUNJQuGZ+lCo4W3j3T32GN01JCiC8QKIsOuERCurAMiZOTHupkhB+axAnsj0OVkYS98gFBG6ILHEMwZ14YuyAL/rIOF6NmfG4Jqu/JACoYP7/j4YlcPIzzlZIHb4sUdezePGLFL8eOKjzWwwovnL9qcJAfdedfMdqkPyCPlTbljQxC1LFwgOLz7lCnljVeVMoLMUPYQxSRC4uuELpQju/pQN2Ab/Idne+DA7SM59IBgD2kHtosupLvXXntHH3boj/eM/FBXYZdZB95a3kPKlW5oDrzMtvsK7xF5TDt4bjutsFUh3caUK1tCogsY+x7ocrIgztgLBNV2WWF4Dvphi/42geVkgAv7nVNGfNC8+27pJgvEFUkUU2prBHwS1er3WSSRCoFKjEago4EbHs1cLFfJUEHSfUnly3g5nwxCXqiQqdwhEv7hk0QqIDwfpIfXzu+SofKkcaQSozG3yjOJJNKw0aBSQdK4+0SDRpovbtLAo1euseV/JsRA7Kj4fV1oVCB2yEcWeS93vPzyK0ViSlcbDZsd6GINDQ16WmMLbjQcEEvLO3LoHrrssisi3CHzTKQpd3TosmskJ2zEIPPIhkBAZMs1cOjPc8qBfW99zy7lR9lTzpCBNELEriaUMWGxsb/+dXXjDsGEZPGMoQTlDsp1wYJFUThI8ksvvVwMCpnB64o9sk+175UpBlp1Q/ckulCe4OITDcodu8YO2A6x3EHZnXLKqatsd8eYdwx5fOQgv8PTWp4oQj7MI3TJJd+O2Sd2tu2220W60D2ZVkZ4vLEXvKmvvrqa9EDYIHvogqcTUl7uIO/2rtB1CaYc2ADxeEYZQbrK6UJ4PKukN378hFg5UEf4Hzm+RzHUiTLCvnlv2RLQf1cg82zxh+3iOSt3dBChU1cRxDExMog8CDT2Amb+cIhQ3oMPPhR9fBD2qquuidnLU089HdkShC1NF2yX7e/sXfHLCHuBPBph83eDCXVhwpVtI+mXEeHoXmZrVXTxt5cMZVCuJ554cqQLvQL+FpJhWHRTd3Nb06T2znyrE0M/f3lIIhUElT9eQSpnvDLMeks6ITtUajQYSQfeKogDjQWTP0zG8OHD3RZb9Il+H3jg1KiioiH1x5OZPIibdf327dvPHXnkUW7NNdeMBo2bvNmzj4z2daWBNA+ixbcrXguIA7qwtZfF9a82cBtdynlcIH2QBzwtpOvH5/7II+e4fv0GRB4hCEYSIYW84EmhgWMSSSiD31OmTI10hfiWI17oQqNFQ5okg/8oP8oRwpnUqONNw9OKLmw/mCSHbeYoZ7wcSQSDxhb5NH40Xkky+A89SSckzlZGEH0bM8m2dElywAUZdL0nNWzkcenSDqKPpyVJBuVmuEAQkw5ICB8m2Eu5MmLiAs/RJYlgQKzOOKPDo8hezthGqM/s2XMcnnIadX+Sla8TtthRRr2iCQqhDH5j0+jC8AafxPtybKgA3aW8R0lyGA+JNxOybQTRlwGhhWhS1uXKiO330AWdwTE8sBe8vtguntYkPfiPMiIdZgonvUd40wYPHhLJOeywwxPlYC+kwwdrkr1AgObPXxCR6yFDhibKwF7Y55n3iElYSQdk3rx4bJ2ZlKcJE/aLcKFb1594YvLII0SfdEgvyV7Ywg8SSLeyP/7QZHDlgwtcyTf1a5IukHfeabzL5TyIJlMksb05Utvn3idRrX6flyRSOdDYfve7HZNZqPCTTiohuoB8D6JVLHalwaIrw4+/xhprun//938v/kfl2tG1bbHiVypPvtBNxr/927+5ddZZr/jb/sdb4nsQ41Lcqq6rDu+RxQmvVM7+2K1QBhWmeRTDuP7vco2syYNAmzfAj+ffQ1bTPC3klW5SysGP59/TyIYeRNPBrng0bOykH9e/z+qqBBfzKPrx/Ht0YdwrYcsdNHBG5v24/j0eRN8LE8oyjyKNoB/Pv+cZ2KXpwiQSiK0fL7zH45xeRn+LvJFhvPA3HvMkUmZ5g5xBNMN4/m/KMK3blPeUdyQNF8oIIpREytAF4mtdz37a4T2zkP2xfpYPu2K7LFMD4Q/j2m/IUuhBtPh2xZNsH6IWL7xmecqo66xrPIxrv9GTJZh8b6bpYFc8iln2gifWX7XB4toVe+Qjx9Itdw09iBbfrnjt+aguF5//+bjJGq6CPHSSJ7HtqVL7AtDqxNDPXyUkkcqBBoFKBE9W0omHgzBZB1/NfnwmruCF4T/GHNEdlnWQDg0gcdhx5Wc/Y+Hc1XpljW8y+aRFmn5cu8+rC7LwSli88JrkEbX0/SuNNmQxjG+/k7wNfny7pxwsTniFpJdr8C0+V5b36KwupJNmL0wIyGMvLMES5sN+Q8jSPkosT6RDV7vFC6/+jGyLk3QFlzCu/QavNJLpy6McLF54Teta9GWk2S4y87xHyEuzXfTMU0YsZVTuPUIXf6kjPw/+fa3shYkYIab2O6+9oAtDOixeeGUyTZ4jTRfsJY1k+vL5WAp1sN95bfeLL9Js98XYep5+2uG9SGL78iPlvKCJK2GF0B2//TGJ1aSXNCaxGjmKIwSEgBAQAukIiCSKKrU1Ar6nrdXvzZOY96s4veqo/qlIYvXYKaYQEAJCoDsREElsa4qkzLc6MfTzZ4uzpo1b6o7KRySxO1BWGkJACAiBziPAMAZzMHz2+RdaTFu0qb0Q8ElUq98z+N1W7U+a6dr56iSfBJHEfDgplBAQAkKg3giwGgO74LAMUKu3kWH+2osNKbeJCIRG0cq/P/7k0+IXIQOj63WIJNYLeaUrBISAEMiPALPQbdvEp55+WiQxkUXoz5ZGoJVJYVLe2C0EbyJfhqztxTIVbMXWnecFF1zgpk+fXnWa/fr1i/TvTp2VVvfaiPAW3rKB+tkA2wriSLjvvvui9uKBBx5073/woUhiS7MhZS4RgSQi1cr/ff7Fl+6ZVd3ORhYhjN15nnDCCW6vvfaqOs1evXq5yy+/vOr43ZlXpdW9tiW8hbdsoDY2QPvA+dBDDzl6oVq5XSyXt0TSoD/bC4FyxtHq/7/51luOBVcffvjh6GuRxVK765w7d25EEqtNr3fv3u6KK67oNn2r1VPxus+mhLWwlg3UzgYeePBB99hvf+uee/559/HHn7QlQYQDtBcbUm4TEWh1MtiI+WPv1oNmzKi64unfv7+77/4Hqo7fiJhIpz+rPL8UBnoPZAONZAOJpEF/thcCjWSQ7aKLSKIagnaxdeVTti4baF4baC82pNwmIqAXuPtfYJHE7sdcdi7MZQOyAdlAZTaQSBr0Z3shoJemspemFniJJHY/5rUoN8lQuckGZAPtZAPtxYaU20QE2sngGyWvIolqaBrFFqWHbFE2IBsoZwOJpEF/thcC5YxD/3ddxSGS2HXYym6FrWxANiAbqI0NtBcbUm4TEdDLVJuXqRIcRRK7H/NKykdhVT6yAdmAbEBL4CSSpnb7Uy9C91eGIondj7nsXJjLBmQDsoHKbKDd+JDym4CAXprKXppa4CWS2P2Y16LcJEPlJhuQDbSTDSRQBv3Vbgi0k8E3Sl5FEtXQNIotSg/ZomxANlDOBtqNDym/CQiUMw7933UVh0hi12EruxW2sgHZgGygNjaQQBn0V7shoJepNi9TJTiKJHY/5pWUj8KqfGQDsgHZgCautBsfVH4bB4FDC4XCZZ1Q57FCobB1J+IrqhAQAkJACAgBISAEhEADIiCS2ICFIpWEgBAQAkJACAgBIVBvBEQS610CSl8ICAEhIASEgBAQAg2IgEhiAxaKVBICQkAICAEhIASEQL0REEmsdwkofSEgBISAEBACQkAINCACIokNWChSSQgIASEgBISAEBAC9UZAJLHeJaD0hYAQEAJCQAgIASHQgAiIJDZgoUglISAEhIAQEAJCQAjUGwGRxHqXgNIXAkJACAgBISAEhEADIiCS2ICFIpWEgBAQAkJACAgBIVBvBEQS610CSl8ICAEhIASEgBAQAg2IgEhiAxaKVBICQkAICAEhIASEQL0REEmsdwkofSEgBISAEBACQkAINCACIokNWChSSQgIASEgBISAEBAC9UZAJLHeJaD0hYAQEAJCQAgIASHQgAiIJDZgoUglISAEhIAQEAJCQAjUGwGRxHqXgNIXAkJACAgBISAEhEADIiCS2ICFIpWEgBAQAkJACAgBIVBvBEQS610CSl8ICAEhIASEgBAQAg2IgEhiAxaKVBICQkAICAEhIASEQL0REEmsdwkofSEgBISAEBACQkAINCACIokNWChSSQgIASEgBISAEBAC9UZAJLHeJaD0hYAQEAJCQAgIASHQgAiIJDZgoUglISAEhIAQEAJCQAjUGwGRxHqXgNIXAkJACAgBISAEhEADIiCS2ICFIpWEgBAQAkJACAgBIVBvBEQS610CSl8ICAEhIASEgBAQAg2IgEhiAxaKVBICQkAICAEhIASEQL0REEmsdwkofSEgBISAEBACQkAINCACIokNWChSSQgIASEgBISAEBAC9UZAJLHeJaD0hYAQEAJCQAgIASHQgAiIJDZgoUglISAEhIAQEAJCQAjUGwGRxHqXgNIXAkJACAgBISAEhEADIiCS2ICFIpWEgBAQAkJACAgBIVBvBEQS610CSl8ICAEhIASEgBAQAg2IgEhiAxaKVBICQkAICAEhIASEQL0REEmsdwkofSEgBISAEBACQkAINCACIokNWChSSQgIASEgBISAEBAC9UZAJLHeJaD0hYAQEAJCQAgIASHQgAiIJDZgoUglISAEhIAQEAJCQAjUGwGRxHqXgNIXAkJACAgBISAEhEADIiCS2ICFIpWEgBAQAkJACAgBIVBvBEQS610CSl8ICAEhIASEgBAQAg2IgEhiAxaKVBICQkAICAEhIASEQL0REEmsdwkofSEgBISAEBACQkAINCACIokNWChSSQgIASEgBISAEBAC9UZAJLHeJaD0hYAQEAJCQAgIASHQgAiIJDZgoUglISAEhIAQEAJCQAjUGwGRxHqXgNIXAkJACAgBISAEhEADIiCS2ICFIpWEgBAQAkJACAgBIVBvBEQS610CSl8ICAEhIASEgBAQAg2IgEhiAxaKVBICQkAICAEhIASEQL0REEmsdwkofSEgBISAEBACQkAINCACIokNWChSSQgIASEgBISAEBAC9UZAJLHeJaD0hYAQEAJCQAgIASHQgAiIJDZgoUglISAEhIAQEAJCQAjUGwGRxHqXgNIXAkJACAgBISAEhEADIiCS2ICFIpWEgBAQAkJACAgBIVBvBEQS610CSl8ICAEhIASEgBAQAg2IgEhiAxaKVBICQkAICAEhIASEQL0REEmsdwkofSEgBISAEBACQkAINCACIokNWChSSQgIASEgBISAEBAC9UZAJLHeJaD0hYAQEAJCQAgIASHQgAiIJDZgoUglISAEhIAQEAJCQAjUGwGRxHqXgNIXAkJACAgBISAEWhqBlYVCwTXpuaITJfNYoVDYuhPxFVUICAEhIASEgBAQAi2NAASxHQ+RxHYsdeVZCAgBISAEhIAQyI1Au5LEFwuFwmWFQmGxTmFQgQ0s8sL699iR/9u/r+RZaI+hHP95dz/z085z3936hen5v/17dPd/+/e1eJa78lVAISAEhECjI9CuJHEvr7HP0+ApjAi1bEA2kGUD7VqfNno7J/2EgBCoEgFValUCp2hCQAgIgQAB1acBIPopBIRAcyOgSq25y0/aCwEh0DgIqD5tnLKQJkJACNQAAVVqNQBRIoSAEBACq1aJEBBCQAgIgZZBQCSxZYpSGRECQqDOCKg+rXMBKHkhIARqi4AqtdriKWlCQAi0LwKqT9u37JVzIdCSCKhSa8liVaaEgBCoAwKqT+sAupIUAkKg6xBQpdZ12EqyEBAC7YWA6tP2Km/lVgi0PAKq1Fq+iJVBISAEugkB1afdBLSSEQJCoHsQUKXWPTgrFSEgBFofAdWnrV/GyqEQaCsEVKm1VXErs0JACHQhAqpPuxBciRYCQqD7EVCl1v2YK0UhIARaEwHVp61ZrsqVEGhbBFSptW3RK+NCQAjUGAHVpzUGVOKEgBCoLwKq1OqLv1IXAkKgdRBQfdo6ZamcCAEhoG2kZANCQAgIgZohIJJYMyglSAgIgUZAQJVaI5SCdBACQqAVEFB92gqlqDwIASFQRECVWhEK3QgBISAEOoWA6tNOwafIQkAINBoCqtQarUSkjxAQAs2KgOrTZi056S0EhEAiAqrUEmHRn0JACAiBihFQfVoxZIogBIRAIyOgSq2RS0e6CQEh0EwIqD5tptKSrkJACGQioEotEyIFEAJCQAjkQkD1aS6YFEgICIFmQUCVWrOUlPQUAkKg0RFQfdroJST9hIAQqAgBVWoVwaXAQkAICIGyCKg+LQuNHggBIdCMCKhSa8ZSk85CQAg0IgKqTxuxVKSTEBACVSOgSq1q6BRRCAgBIRBDQPVpDA79EAJCoNkRUKXW7CUo/YWAEGgUBFSfNkpJSA8hIARqgoAqtZrAKCFCQAgIgYLqUxmBEBACLYWAKrWWKk5lRggIgToioPq0juAraSEgBGqPgCq12mMqiUJACLQnAqpP27PclWsh0LIIqFJr2aJVxoSAEOhmBFSfdjPgSk4ICIGuRUCVWtfiK+lCQAi0DwKqT9unrJVTIdAWCKhSa4tiViaFgBDoBgRUn3YDyEpCCAiB7kNAlVr3Ya2UhIAQaG0EVJ+2dvkqd0Kg7RBQpdZ2Ra4MCwEh0EUIqD7tImAlVggIgfogoEqtPrgrVSEgBFoPAdWnrVemypEQaGsEVKm1dfEr80JACNQQAdWnNQRTooSAEKg/AqrU6l8G0kAICIHWQED1aWuUo3IhBITAKgRUqckUhIAQEAK1QUD1aW1wlBQhIAQaBAFVag1SEFJDCAiBpkdA9WnTF6EyIASEgI+AKjUfDd0LASEgBKpHQPVp9dgpphAQAg2IgCq1BiwUqSQEhEBTIqD6tCmLTUoLASFQDgFVauWQ0f9CQAgIgcoQUH1aGV4KLQSEQIMjoEqtwQtI6gkBIdA0CKg+bZqikqJCQAjkQUCVWh6UFEYICAEhkI2A6tNsjBRCCAiBJkJAlVoTFZZUFQJCoKERUH3a0MUj5YSAEKgUAVVqlSKm8EJACAiBZARUnybjon+FgBBoUgRUqTVpwUltISAEGg4B1acNVyRSSAgIgc4g0OiV2uLOZK6L4x7as2fPV7s4DYkXAkKgeRBo9Pq0eZCUpkJACDQEAo1eqTWkfv/xH/9x9SabbPJJoVBoSP0awrKkhBBoPwRUH7RfmSvHQqClEWj0Sq3R9Nv6K1/5ygvTpk370jmHbo2mX0sbqzInBBocAdUHDV5AUk8ICIHKEGj0Sq2R9DsUUnjZZZfBD6NDJLEyY1NoIdDiCDRSfdXiUCt7QkAIdAcCjV6pNYR+1r382GOPGT8USewO61QaQqC5EGiI+qq5IJO2QkAINDICjV6p1Vu/qHt5+vTpUfdyjCGqu7mR7Vq6CYF6IFDv+qoeeVaaQkAItDACjV6p1VO/ku5lkcQWfhNHM/UDAAAOaUlEQVSUNSHQeQTqWV91XntJEAJCQAgECDR6pVYX/ehe7tWr1ydh97JIYmA9+ikEhICPQF3qK18B3QsBISAEaolAo1dq3a1faveySGItTU+yhEDLIdDd9VXLAagMCQEh0FgINHql1p36ZXYviyQ2lvFKGyHQYAh0Z33VYFmXOkJACLQiAo1eqXWLfnm7l0USW/EVUJ6EQM0Q6Jb6qmbaSpAQEAJCIAOBRq/Uulq/irqXRRIzrEmPhUB7I9DV9VV7o6vcCwEh0O0INHql1pX6Vdy9LJLY7fapBIVAMyHQlfVVM+EgXYWAEGgRBBq9UusS/artXhZJbBGrVzaEQNcg0CX1VdeoKqlCQAgIgWwEGr1Sq7V+nepeFknMNiiFEAJtjECt66s2hlJZFwJCoBEQaPRKrZb6dbp7WSSxEUxWOgiBhkWglvVVw2ZSigkBIdA+CDR6pVYT/WrVvSyS2D4vhnIqBKpAoCb1VRXpKooQEAJCoEsQaPRKrbP61bR7WSSxS2xQQoVAqyDQ2fqqVXBQPoSAEGgRBBq9UuuMfjXvXhZJbBGrVzaEQNcg0Jn6qms0klQhIASEQCcQaPRKrSr9uqp7WSSxE5amqEKg9RGoqr5qfViUQyEgBJoVgUav1CrVr0u7l0USm9XMpXehUOhRKBRWrrpWA0izx68mz5XGqbS+qlS+wgsBISAEuhWBRq/UKtGvy7uXRRK71TaVWG0ROLZQKLxYKBS4VnM0e/xq8lxpnErqq0plK7wQEAJCoNsRaPRKLZd+3dW9LJLY7fapBGuHwO8LhcJxhUKBazVHs8evJs+VxslVX1UqVOGFgBAQAvVCoNErtSz9urV7WSSxXmaqdDuJwDCPHD5eKBSGVyiP+MTjaMb4q1Tv8ktWfdXlCigBISAEhEAtEWj0Si1Nv27vXhZJrKXpSVY3IvB9r5uZbmN+V3I0e/xK8tqZsGn1VWfkKq4QEAJCoC4INHqllqhfvbqXRRLrYqNKtHMI/GehUOA94soR/l71d9lLGD78XTbiqgdh+PB3V8fPkl/L54n1VS0TkCwhIASEQHci0OiVWqhfXbuXRRK70zSVVo0QSPIc+p7BrGSaPX5W/mr5PKyvailbsoSAEBAC3Y5Ao1dqvn51714WSex2+1SCnUcgaQyhP0YxKwUmrBDeP5opvq93V9/79VVXpyX5QkAICIEuR6DRK7VIv0bpXhZJ7HJ7VAK1RSCNzCWRxzD1Zo8f5qerfzd6fdrV+Zd8ISAEWgyBRq/U3Fe+8pUXpk+f/mVI0Brh96qxXi1mEspOCyGQ1q2c1I0cZr3Z44f56erfjV6fdnX+JV8ICIEWQ+CxQqHwVo6TnRqoALv9nDJlSiPwwUQd6oHHqjQpjzzl1iphyO/bhULhnVXnu4VCwc73CoUC55+88/1CocD5warzw0KhYOdHhUKB8+NV5yeFQsHOTwuFAudnq87PC4WCnV8UCgXOL73zz4VCgfMvq86/FgoFO/9WKBQ4/77q/EehULDzn4VCgfNfq87/LhQKdvKO1ep9Qw4TRZKOrAkkrfC8ljjmqftIT4cQEAJCoGUQWLtQKOQ965FpeRKTUc9bZq0Srn+hUFhr1fmNQqFg59cLhQLnmqvOrxUKBTvXKBQKnF9ddUJ67PxKoVDg/I9V5/9XKBTs/PdCocD5/646/59CoWDn/10oFDj/p3f+j0KhwPl/rTr/rVAo2Pl/FgoFzv9j1fm/FwoFO/+3QqHA+b+uOv+XQqFgZ3Kp1/7fZvcUdlb/2iMqiUJACAgBIdBtCPD1XtCYxG7DWwm1FwLNPuYwTf+kCTftVbrKrRAQAkKgxRGISOKqPGp2c4sXtrJXFwSSyFQa+QqVbPb4YX70WwgIASEgBJoEAZ8korLWSWySgpOaTYNA0gSWtG7cMGPNHj/Mj34LASEgBIRAkyAQksRI7Ubpfl41iaRJoJSaQiARgXCCSvg7MZL3Zxg+/O0FTbwNw4e/EyN5f4bhw99e0P+/vXsJkeWq4wD807xc+EqiRiSKxrmSaMQo0YVuNKioWYkgKOIFF0Gz85JNEnxAEHGpG1dCFBV1YRYaFIIbk4WSq7iTSCRRk/iOogZFA5F/cyqUZU9PT09PV3fXVzBUdZ2qOud8cxh+1KnqsUmAAAEC+yQwNyS2Do4+/Swk7tNQm3Rf+ncO590ZPApn188/qn/KCRAgQGALBRaFxGruqNPPQuIWjhhNWkWgnkGsL9euZZkv2W6HPr3a9fOf7ogNAgQIENgdgaNC4qwnY00/C4m7M5C09EiBegHlXJJar7Ls+vmr9Nk5BAgQIDCiwFIhsbVv49PPQuKII0PV6xaoaeYHk9R6lWXXz1+lz84hQIAAgREFjhMSq5mz6eezZ89u5N/4CYkjjgxVr1vgle0/vdR6lWXXz1+lz84hQIAAgREFjhsSZ03d1PSzkDjiyFA1AQIECBAgMGmBlUJiEzv16WchcdJjU+cJECBAgACBEQVOEhKr2ac6/SwkjjgyVE2AAAECBAhMWuCkIXGGd1rTz0LipMemzhMgQIAAAQIjCqwlJLb2r336WUgccWSomgABAgQIEJi0wDpDYkGudfpZSJz02NR5AgQIECBAYESBdYfEWVdq+vnMmTN/PX/+/FMnWYTEEUeGqgkQIECAAIFJC5xKSGyiJ55+FhInPTZ1ngABAgQIEBhR4DRDYnXrRNPPQuKII0PVBAgQIECAwKQFTjskznBXnX4WEic9NnWeAAECBAgQGFFgIyGx9e/Y089C4ogjQ9UECBAgQIDApAU2GRIL+ljTz0LipMemzhMgQIAAAQIjCmw6JM66uuz0s5A44shQNQECBAgQIDBpgVFCYhM/cvpZSJz02NR5AgQIECBAYESBMUNidXvh9LOQOOLIUDUBAgQIECAwaYGxQ+IM/7DpZyFx0mNT5wkQIECAAIERBbYiJLb+/9/0s5A44shQNQECBAgQILB3Ajcm+dSSvdqmkFhN/p/pZyFxyd+iwwgQIECAAAECRwhUQKzgV+tllm0LibM2d9PPQuIyv0LHECBAgAABAgQWCxw3INbVPr34kqOW3nRwcPDwqC1QOQECBAgQIEBgxwVWCYg73mXNJ0CAAAECBAgQmCfQ3QUUEOfp2EeAAAECBAgQmKhA9+xht17EUEFy2ZdZFl1HGQECBAgQIECAwJYLVDhcNiAuc9yWd1fzCBAgQIAAAQIElhF4qIXECoDd1PPwPFPRQxGfCWyPwAeS/DxJvaB1b5Kre01bVPbuJL9I8miSe5Jc0Tuvv3lxks8k+XWSv7V66m/Fhf2DbBMgQIDA9AQExOn9zvV4dwQOkjye5Exr8q1JftC2F5U9P8kfk1zfjv1Ekm8d0u07k9yX5KpW/qok9yf54iHH202AAAECeyzQ3VEUEPf4l6xreyHw3CSv6fXkuiS/aZ8Xlb0/yd29856T5Ikkl/T21eaVSf6T5BWD/XW38skkLxzs95EAAQIE9lyge/awW+95d3WPwN4I3JLkG4f0pl92e5IvDI77be+OZFf0niS/6j4M1nUn8obBPh8JECBAYM8FKhwKiHv+S9a9vRN4W3te8GVzejYsq2cMPzc4rp5Pfv1g39uT/HKwr/v4WJI3dx+sCRAgQGAaAsu8zDINCb0ksBsC721h7to5zZ1XdtucO4l/nnMn8QVtGvolg+vW84l/T1JT2hYCBAgQIECAAIEtFHhXkgeSvHxO2w4re1+S7/WOf1GSfyS5qLev2/x8kq92H9r620nuGOzzkQABAgQIECBAYEsE6k7eI0lePac9R5X9vvd282eTfHnONWpXfQXON5N8vZXflaTeeL7gkOPtJkCAAAECBAgQGFngbJJ/t6BYYbH7uTTJorJq9jva9yTWCyv1pvNlc/pyrn1VTn1HYr39XEu91VxvUNeLKze3fVYECBAgQIAAAQIECBAgQIAAAQIECBAgQIAAAQIECBAgQIAAAQIECBAgQIAAAQIECBAgQIAAAQIECBAgQIAAAQIECBAgQIAAAQIECBAgQIAAAQIECBAgQIAAAQIECBAgQIAAAQIECBAgQIAAAQIECBAgQIAAAQIECBAgQIAAAQIECBAgkFyX5ME5EBcmeSrJlQvKHk/yp8HPW5J059b/on20/W/Z7yZ505xr2UWAAAECBAgQILCFAicJifMCZHWxC4ld+bOSfCTJX5JUiLQQIECAAAECBAhsQOANSX6W5CtJ7mv13Zjk/iQ/TvL9JC/tteO2JA8k+WGS209wJ7ELgb1LzzaHIbErvzXJvd0HawIECBAgQIAAgdMVeG2SJ9rduqrpxW0K+KpW7c1J7m7b17Tp30vb5y9tMCRW3U8mubjVbUWAAAECBAgQIHCKAtcm+WeSC1odH07ynV59z27h7KIkH01yV6/snScIiX9I8rvez0/bdQ+7k/i89pxjF1B7zbBJgAABAgQIECCwboEKifWCSLfckqReKqkp6P7PFUlqqvnO7sAkbzxBSDzudPPVSf6V5Bm9+m0SIECAAAECBAickkCFxEd61/5QknqbeN7yscGdxHp2cdW3m48bEj85uMM5r332ESBAgAABAgQIrElgGBLrjmF9Nc1Bu/5be6Hxda3s8nZH72sbCInPTPLBdnez6rcQIECAAAECBAhsQGAYEqvKukP4k/bzoyT1BnS33JHkofb288eTPNwV9Nbdc4XD70K8ofcVN8OyCqbneuX1PYl1h7OeW7wnyfW969skQIAAAQIECBAgQIAAAQIECBAgQIAAAQIECBAgQIAAAQIECBAgQIAAAQIECBAgQIAAAQIECBAgQIAAAQIECBAgQIAAAQIECBAgQIAAAQIECBAgQIAAAQIECBAgQIAAAQIECBAgQIAAAQIECBAgQIAAAQIECBAgQIAAAQIECBAgQIAAAQIECBAgQIAAAQJ7K/BffeyjXVe99MUAAAAASUVORK5CYII=;" vertex="1" parent="1">
                    <mxGeometry x="30" y="-20" width="649" height="696" as="geometry"/>
                </mxCell>
                <mxCell id="3" value="" style="verticalLabelPosition=bottom;shadow=0;dashed=0;align=center;html=1;verticalAlign=top;shape=mxgraph.electrical.opto_electronics.led_2;pointerEvents=1;direction=west;" vertex="1" parent="1">
                    <mxGeometry x="320" y="570" width="100" height="70" as="geometry"/>
                </mxCell>
                <mxCell id="5" value="Yellow LED" style="text;html=1;align=center;verticalAlign=middle;resizable=0;points=[];autosize=1;strokeColor=none;fillColor=none;" vertex="1" parent="1">
                    <mxGeometry x="334" y="640" width="80" height="30" as="geometry"/>
                </mxCell>
                <mxCell id="6" value="&lt;font color=&quot;#1a1a1a&quot;&gt;two LED&lt;/font&gt;" style="rounded=0;whiteSpace=wrap;html=1;fillColor=#FFFFFF;" vertex="1" parent="1">
                    <mxGeometry x="30" y="400" width="60" height="30" as="geometry"/>
                </mxCell>
            </root>
        </mxGraphModel>
    </diagram>
</mxfile>